<svg id="export-svg" width="100%" xmlns="http://www.w3.org/2000/svg" viewBox="0 0 1728 2860" style="max-width: 1728px; background: rgb(255, 255, 255);" role="graphics-document document" aria-roledescription="gantt"><style xmlns="http://www.w3.org/1999/xhtml">p {margin: 0;}</style><style>#export-svg{font-family:arial,sans-serif;font-size:14px;fill:#333;}@keyframes edge-animation-frame{from{stroke-dashoffset:0;}}@keyframes dash{to{stroke-dashoffset:0;}}#export-svg .edge-animation-slow{stroke-dasharray:9,5!important;stroke-dashoffset:900;animation:dash 50s linear infinite;stroke-linecap:round;}#export-svg .edge-animation-fast{stroke-dasharray:9,5!important;stroke-dashoffset:900;animation:dash 20s linear infinite;stroke-linecap:round;}#export-svg .error-icon{fill:#552222;}#export-svg .error-text{fill:#552222;stroke:#552222;}#export-svg .edge-thickness-normal{stroke-width:1px;}#export-svg .edge-thickness-thick{stroke-width:3.5px;}#export-svg .edge-pattern-solid{stroke-dasharray:0;}#export-svg .edge-thickness-invisible{stroke-width:0;fill:none;}#export-svg .edge-pattern-dashed{stroke-dasharray:3;}#export-svg .edge-pattern-dotted{stroke-dasharray:2;}#export-svg .marker{fill:#333333;stroke:#333333;}#export-svg .marker.cross{stroke:#333333;}#export-svg svg{font-family:arial,sans-serif;font-size:14px;}#export-svg p{margin:0;}#export-svg .mermaid-main-font{font-family:arial,sans-serif;}#export-svg .exclude-range{fill:#eeeeee;}#export-svg .section{stroke:none;opacity:0.2;}#export-svg .section0{fill:rgba(102, 102, 255, 0.49);}#export-svg .section2{fill:#fff400;}#export-svg .section1,#export-svg .section3{fill:white;opacity:0.2;}#export-svg .sectionTitle0{fill:#333;}#export-svg .sectionTitle1{fill:#333;}#export-svg .sectionTitle2{fill:#333;}#export-svg .sectionTitle3{fill:#333;}#export-svg .sectionTitle{text-anchor:start;font-family:arial,sans-serif;}#export-svg .grid .tick{stroke:lightgrey;opacity:0.8;shape-rendering:crispEdges;}#export-svg .grid .tick text{font-family:arial,sans-serif;fill:#333;}#export-svg .grid path{stroke-width:0;}#export-svg .today{fill:none;stroke:red;stroke-width:2px;}#export-svg .task{stroke-width:2;}#export-svg .taskText{text-anchor:middle;font-family:arial,sans-serif;}#export-svg .taskTextOutsideRight{fill:black;text-anchor:start;font-family:arial,sans-serif;}#export-svg .taskTextOutsideLeft{fill:black;text-anchor:end;}#export-svg .task.clickable{cursor:pointer;}#export-svg .taskText.clickable{cursor:pointer;fill:#003163!important;font-weight:bold;}#export-svg .taskTextOutsideLeft.clickable{cursor:pointer;fill:#003163!important;font-weight:bold;}#export-svg .taskTextOutsideRight.clickable{cursor:pointer;fill:#003163!important;font-weight:bold;}#export-svg .taskText0,#export-svg .taskText1,#export-svg .taskText2,#export-svg .taskText3{fill:white;}#export-svg .task0,#export-svg .task1,#export-svg .task2,#export-svg .task3{fill:#8a90dd;stroke:#534fbc;}#export-svg .taskTextOutside0,#export-svg .taskTextOutside2{fill:black;}#export-svg .taskTextOutside1,#export-svg .taskTextOutside3{fill:black;}#export-svg .active0,#export-svg .active1,#export-svg .active2,#export-svg .active3{fill:#bfc7ff;stroke:#534fbc;}#export-svg .activeText0,#export-svg .activeText1,#export-svg .activeText2,#export-svg .activeText3{fill:black!important;}#export-svg .done0,#export-svg .done1,#export-svg .done2,#export-svg .done3{stroke:grey;fill:lightgrey;stroke-width:2;}#export-svg .doneText0,#export-svg .doneText1,#export-svg .doneText2,#export-svg .doneText3{fill:black!important;}#export-svg .crit0,#export-svg .crit1,#export-svg .crit2,#export-svg .crit3{stroke:#ff8888;fill:red;stroke-width:2;}#export-svg .activeCrit0,#export-svg .activeCrit1,#export-svg .activeCrit2,#export-svg .activeCrit3{stroke:#ff8888;fill:#bfc7ff;stroke-width:2;}#export-svg .doneCrit0,#export-svg .doneCrit1,#export-svg .doneCrit2,#export-svg .doneCrit3{stroke:#ff8888;fill:lightgrey;stroke-width:2;cursor:pointer;shape-rendering:crispEdges;}#export-svg .milestone{transform:rotate(45deg) scale(0.8,0.8);}#export-svg .milestoneText{font-style:italic;}#export-svg .doneCritText0,#export-svg .doneCritText1,#export-svg .doneCritText2,#export-svg .doneCritText3{fill:black!important;}#export-svg .vert{stroke:navy;}#export-svg .vertText{font-size:15px;text-anchor:middle;fill:navy!important;}#export-svg .activeCritText0,#export-svg .activeCritText1,#export-svg .activeCritText2,#export-svg .activeCritText3{fill:black!important;}#export-svg .titleText{text-anchor:middle;font-size:18px;fill:#333;font-family:arial,sans-serif;}#export-svg .node .neo-node{stroke:#B8B8FF;}#export-svg [data-look="neo"].node rect,#export-svg [data-look="neo"].cluster rect,#export-svg [data-look="neo"].node polygon{stroke:#B8B8FF;filter:drop-shadow( 1px 2px 2px rgba(185,185,185,1));}#export-svg [data-look="neo"].node path{stroke:#B8B8FF;stroke-width:1;}#export-svg [data-look="neo"].node .outer-path{filter:drop-shadow( 1px 2px 2px rgba(185,185,185,1));}#export-svg [data-look="neo"].node .neo-line path{stroke:#B8B8FF;filter:none;}#export-svg [data-look="neo"].node circle{stroke:#B8B8FF;filter:drop-shadow( 1px 2px 2px rgba(185,185,185,1));}#export-svg [data-look="neo"].node circle .state-start{fill:#000000;}#export-svg [data-look="neo"].statediagram-cluster rect{fill:#ECECFF;stroke:#B8B8FF;stroke-width:1;}#export-svg [data-look="neo"].icon-shape .icon{fill:#B8B8FF;filter:drop-shadow( 1px 2px 2px rgba(185,185,185,1));}#export-svg [data-look="neo"].icon-shape .icon-neo path{stroke:#B8B8FF;filter:drop-shadow( 1px 2px 2px rgba(185,185,185,1));}#export-svg :root{--mermaid-font-family:"trebuchet ms",verdana,arial,sans-serif;}</style><g/><g class="grid" transform="translate(75, 2810)" fill="none" font-size="10" font-family="sans-serif" text-anchor="middle"><path class="domain" stroke="currentColor" d="M0,-2775V0H1578V-2775"/><g class="tick" opacity="1" transform="translate(50,0)"><line stroke="currentColor" y2="-2775"/><text fill="#000" y="3" dy="1em" stroke="none" font-size="10" style="text-anchor: middle;">01 / 2023</text></g><g class="tick" opacity="1" transform="translate(315,0)"><line stroke="currentColor" y2="-2775"/><text fill="#000" y="3" dy="1em" stroke="none" font-size="10" style="text-anchor: middle;">01 / 2024</text></g><g class="tick" opacity="1" transform="translate(581,0)"><line stroke="currentColor" y2="-2775"/><text fill="#000" y="3" dy="1em" stroke="none" font-size="10" style="text-anchor: middle;">01 / 2025</text></g><g class="tick" opacity="1" transform="translate(846,0)"><line stroke="currentColor" y2="-2775"/><text fill="#000" y="3" dy="1em" stroke="none" font-size="10" style="text-anchor: middle;">01 / 2026</text></g><g class="tick" opacity="1" transform="translate(1111,0)"><line stroke="currentColor" y2="-2775"/><text fill="#000" y="3" dy="1em" stroke="none" font-size="10" style="text-anchor: middle;">01 / 2027</text></g><g class="tick" opacity="1" transform="translate(1376,0)"><line stroke="currentColor" y2="-2775"/><text fill="#000" y="3" dy="1em" stroke="none" font-size="10" style="text-anchor: middle;">01 / 2028</text></g></g><g><rect x="0" y="48" width="1690.5" height="24" class="section section0"/><rect x="0" y="288" width="1690.5" height="24" class="section section2"/><rect x="0" y="1752" width="1690.5" height="24" class="section section1"/><rect x="0" y="792" width="1690.5" height="24" class="section section2"/><rect x="0" y="1056" width="1690.5" height="24" class="section section0"/><rect x="0" y="1776" width="1690.5" height="24" class="section section1"/><rect x="0" y="1080" width="1690.5" height="24" class="section section0"/><rect x="0" y="1800" width="1690.5" height="24" class="section section1"/><rect x="0" y="2640" width="1690.5" height="24" class="section section2"/><rect x="0" y="456" width="1690.5" height="24" class="section section3"/><rect x="0" y="648" width="1690.5" height="24" class="section section1"/><rect x="0" y="1824" width="1690.5" height="24" class="section section1"/><rect x="0" y="1104" width="1690.5" height="24" class="section section0"/><rect x="0" y="1848" width="1690.5" height="24" class="section section1"/><rect x="0" y="552" width="1690.5" height="24" class="section section0"/><rect x="0" y="816" width="1690.5" height="24" class="section section2"/><rect x="0" y="1128" width="1690.5" height="24" class="section section0"/><rect x="0" y="1872" width="1690.5" height="24" class="section section1"/><rect x="0" y="1152" width="1690.5" height="24" class="section section0"/><rect x="0" y="672" width="1690.5" height="24" class="section section1"/><rect x="0" y="1896" width="1690.5" height="24" class="section section1"/><rect x="0" y="2664" width="1690.5" height="24" class="section section2"/><rect x="0" y="144" width="1690.5" height="24" class="section section1"/><rect x="0" y="1176" width="1690.5" height="24" class="section section0"/><rect x="0" y="312" width="1690.5" height="24" class="section section2"/><rect x="0" y="936" width="1690.5" height="24" class="section section3"/><rect x="0" y="1200" width="1690.5" height="24" class="section section0"/><rect x="0" y="2688" width="1690.5" height="24" class="section section2"/><rect x="0" y="1224" width="1690.5" height="24" class="section section0"/><rect x="0" y="576" width="1690.5" height="24" class="section section0"/><rect x="0" y="1920" width="1690.5" height="24" class="section section1"/><rect x="0" y="480" width="1690.5" height="24" class="section section3"/><rect x="0" y="168" width="1690.5" height="24" class="section section1"/><rect x="0" y="1248" width="1690.5" height="24" class="section section0"/><rect x="0" y="1944" width="1690.5" height="24" class="section section1"/><rect x="0" y="72" width="1690.5" height="24" class="section section0"/><rect x="0" y="696" width="1690.5" height="24" class="section section1"/><rect x="0" y="840" width="1690.5" height="24" class="section section2"/><rect x="0" y="1272" width="1690.5" height="24" class="section section0"/><rect x="0" y="1968" width="1690.5" height="24" class="section section1"/><rect x="0" y="1296" width="1690.5" height="24" class="section section0"/><rect x="0" y="1992" width="1690.5" height="24" class="section section1"/><rect x="0" y="1320" width="1690.5" height="24" class="section section0"/><rect x="0" y="2016" width="1690.5" height="24" class="section section1"/><rect x="0" y="2040" width="1690.5" height="24" class="section section1"/><rect x="0" y="1344" width="1690.5" height="24" class="section section0"/><rect x="0" y="960" width="1690.5" height="24" class="section section3"/><rect x="0" y="336" width="1690.5" height="24" class="section section2"/><rect x="0" y="600" width="1690.5" height="24" class="section section0"/><rect x="0" y="2064" width="1690.5" height="24" class="section section1"/><rect x="0" y="2712" width="1690.5" height="24" class="section section2"/><rect x="0" y="1368" width="1690.5" height="24" class="section section0"/><rect x="0" y="2088" width="1690.5" height="24" class="section section1"/><rect x="0" y="1392" width="1690.5" height="24" class="section section0"/><rect x="0" y="2112" width="1690.5" height="24" class="section section1"/><rect x="0" y="360" width="1690.5" height="24" class="section section2"/><rect x="0" y="864" width="1690.5" height="24" class="section section2"/><rect x="0" y="720" width="1690.5" height="24" class="section section1"/><rect x="0" y="2136" width="1690.5" height="24" class="section section1"/><rect x="0" y="2736" width="1690.5" height="24" class="section section2"/><rect x="0" y="1416" width="1690.5" height="24" class="section section0"/><rect x="0" y="504" width="1690.5" height="24" class="section section3"/><rect x="0" y="984" width="1690.5" height="24" class="section section3"/><rect x="0" y="2160" width="1690.5" height="24" class="section section1"/><rect x="0" y="1440" width="1690.5" height="24" class="section section0"/><rect x="0" y="192" width="1690.5" height="24" class="section section1"/><rect x="0" y="744" width="1690.5" height="24" class="section section1"/><rect x="0" y="384" width="1690.5" height="24" class="section section2"/><rect x="0" y="2184" width="1690.5" height="24" class="section section1"/><rect x="0" y="1464" width="1690.5" height="24" class="section section0"/><rect x="0" y="216" width="1690.5" height="24" class="section section1"/><rect x="0" y="2208" width="1690.5" height="24" class="section section1"/><rect x="0" y="1488" width="1690.5" height="24" class="section section0"/><rect x="0" y="2232" width="1690.5" height="24" class="section section1"/><rect x="0" y="96" width="1690.5" height="24" class="section section0"/><rect x="0" y="888" width="1690.5" height="24" class="section section2"/><rect x="0" y="1512" width="1690.5" height="24" class="section section0"/><rect x="0" y="2256" width="1690.5" height="24" class="section section1"/><rect x="0" y="1536" width="1690.5" height="24" class="section section0"/><rect x="0" y="2280" width="1690.5" height="24" class="section section1"/><rect x="0" y="240" width="1690.5" height="24" class="section section1"/><rect x="0" y="1008" width="1690.5" height="24" class="section section3"/><rect x="0" y="768" width="1690.5" height="24" class="section section1"/><rect x="0" y="528" width="1690.5" height="24" class="section section3"/><rect x="0" y="2304" width="1690.5" height="24" class="section section1"/><rect x="0" y="408" width="1690.5" height="24" class="section section2"/><rect x="0" y="1560" width="1690.5" height="24" class="section section0"/><rect x="0" y="2760" width="1690.5" height="24" class="section section2"/><rect x="0" y="2328" width="1690.5" height="24" class="section section1"/><rect x="0" y="2352" width="1690.5" height="24" class="section section1"/><rect x="0" y="2472" width="1690.5" height="24" class="section section1"/><rect x="0" y="2376" width="1690.5" height="24" class="section section1"/><rect x="0" y="1584" width="1690.5" height="24" class="section section0"/><rect x="0" y="2400" width="1690.5" height="24" class="section section1"/><rect x="0" y="2496" width="1690.5" height="24" class="section section1"/><rect x="0" y="2424" width="1690.5" height="24" class="section section1"/><rect x="0" y="2520" width="1690.5" height="24" class="section section1"/><rect x="0" y="1608" width="1690.5" height="24" class="section section0"/><rect x="0" y="912" width="1690.5" height="24" class="section section2"/><rect x="0" y="2448" width="1690.5" height="24" class="section section1"/><rect x="0" y="2544" width="1690.5" height="24" class="section section1"/><rect x="0" y="624" width="1690.5" height="24" class="section section0"/><rect x="0" y="1032" width="1690.5" height="24" class="section section3"/><rect x="0" y="264" width="1690.5" height="24" class="section section1"/><rect x="0" y="1632" width="1690.5" height="24" class="section section0"/><rect x="0" y="432" width="1690.5" height="24" class="section section2"/><rect x="0" y="2568" width="1690.5" height="24" class="section section1"/><rect x="0" y="1656" width="1690.5" height="24" class="section section0"/><rect x="0" y="2784" width="1690.5" height="24" class="section section2"/><rect x="0" y="1680" width="1690.5" height="24" class="section section0"/><rect x="0" y="2592" width="1690.5" height="24" class="section section1"/><rect x="0" y="1704" width="1690.5" height="24" class="section section0"/><rect x="0" y="2616" width="1690.5" height="24" class="section section1"/><rect x="0" y="1728" width="1690.5" height="24" class="section section0"/><rect x="0" y="120" width="1690.5" height="24" class="section section0"/></g><g><rect id="task1" rx="3" ry="3" x="75" y="50" width="795" height="20" transform-origin="472.5px 60px" class="task task0"/><rect id="task11" rx="3" ry="3" x="127" y="290" width="529" height="20" transform-origin="391.5px 300px" class="task task2"/><rect id="task72" rx="3" ry="3" x="127" y="1754" width="529" height="20" transform-origin="391.5px 1764px" class="task task1"/><rect id="task32" rx="3" ry="3" x="130" y="794" width="530" height="20" transform-origin="395px 804px" class="task task2"/><rect id="task43" rx="3" ry="3" x="137" y="1058" width="530" height="20" transform-origin="402px 1068px" class="task task0"/><rect id="task73" rx="3" ry="3" x="144" y="1778" width="530" height="20" transform-origin="409px 1788px" class="task task1"/><rect id="task44" rx="3" ry="3" x="152" y="1082" width="530" height="20" transform-origin="417px 1092px" class="task task0"/><rect id="task74" rx="3" ry="3" x="154" y="1802" width="530" height="20" transform-origin="419px 1812px" class="task task1"/><rect id="task109" rx="3" ry="3" x="154" y="2642" width="530" height="20" transform-origin="419px 2652px" class="task task2"/><rect id="task18" rx="3" ry="3" x="156" y="458" width="530" height="20" transform-origin="421px 468px" class="task task3"/><rect id="task26" rx="3" ry="3" x="167" y="650" width="530" height="20" transform-origin="432px 660px" class="task task1"/><rect id="task75" rx="3" ry="3" x="167" y="1826" width="530" height="20" transform-origin="432px 1836px" class="task task1"/><rect id="task45" rx="3" ry="3" x="183" y="1106" width="530" height="20" transform-origin="448px 1116px" class="task task0"/><rect id="task76" rx="3" ry="3" x="189" y="1850" width="530" height="20" transform-origin="454px 1860px" class="task task1"/><rect id="task22" rx="3" ry="3" x="192" y="554" width="530" height="20" transform-origin="457px 564px" class="task task0"/><rect id="task33" rx="3" ry="3" x="193" y="818" width="529" height="20" transform-origin="457.5px 828px" class="task task2"/><rect id="task46" rx="3" ry="3" x="200" y="1130" width="530" height="20" transform-origin="465px 1140px" class="task task0"/><rect id="task77" rx="3" ry="3" x="210" y="1874" width="530" height="20" transform-origin="475px 1884px" class="task task1"/><rect id="task47" rx="3" ry="3" x="225" y="1154" width="530" height="20" transform-origin="490px 1164px" class="task task0"/><rect id="task27" rx="3" ry="3" x="235" y="674" width="530" height="20" transform-origin="500px 684px" class="task task1"/><rect id="task78" rx="3" ry="3" x="235" y="1898" width="530" height="20" transform-origin="500px 1908px" class="task task1"/><rect id="task110" rx="3" ry="3" x="244" y="2666" width="530" height="20" transform-origin="509px 2676px" class="task task2"/><rect id="task5" rx="3" ry="3" x="246" y="146" width="530" height="20" transform-origin="511px 156px" class="task task1"/><rect id="task48" rx="3" ry="3" x="251" y="1178" width="530" height="20" transform-origin="516px 1188px" class="task task0"/><rect id="task12" rx="3" ry="3" x="252" y="314" width="530" height="20" transform-origin="517px 324px" class="task task2"/><rect id="task38" rx="3" ry="3" x="256" y="938" width="530" height="20" transform-origin="521px 948px" class="task task3"/><rect id="task49" rx="3" ry="3" x="268" y="1202" width="530" height="20" transform-origin="533px 1212px" class="task task0"/><rect id="task111" rx="3" ry="3" x="270" y="2690" width="530" height="20" transform-origin="535px 2700px" class="task task2"/><rect id="task50" rx="3" ry="3" x="293" y="1226" width="530" height="20" transform-origin="558px 1236px" class="task task0"/><rect id="task23" rx="3" ry="3" x="300" y="578" width="530" height="20" transform-origin="565px 588px" class="task task0"/><rect id="task79" rx="3" ry="3" x="301" y="1922" width="530" height="20" transform-origin="566px 1932px" class="task task1"/><rect id="task19" rx="3" ry="3" x="312" y="482" width="529" height="20" transform-origin="576.5px 492px" class="task task3"/><rect id="task6" rx="3" ry="3" x="312" y="170" width="530" height="20" transform-origin="577px 180px" class="task task1"/><rect id="task51" rx="3" ry="3" x="320" y="1250" width="529" height="20" transform-origin="584.5px 1260px" class="task task0"/><rect id="task80" rx="3" ry="3" x="322" y="1946" width="530" height="20" transform-origin="587px 1956px" class="task task1"/><rect id="task2" rx="3" ry="3" x="324" y="74" width="795" height="20" transform-origin="721.5px 84px" class="task task0"/><rect id="task28" rx="3" ry="3" x="325" y="698" width="530" height="20" transform-origin="590px 708px" class="task task1"/><rect id="task34" rx="3" ry="3" x="336" y="842" width="530" height="20" transform-origin="601px 852px" class="task task2"/><rect id="task52" rx="3" ry="3" x="336" y="1274" width="530" height="20" transform-origin="601px 1284px" class="task task0"/><rect id="task81" rx="3" ry="3" x="344" y="1970" width="530" height="20" transform-origin="609px 1980px" class="task task1"/><rect id="task53" rx="3" ry="3" x="357" y="1298" width="530" height="20" transform-origin="622px 1308px" class="task task0"/><rect id="task82" rx="3" ry="3" x="362" y="1994" width="530" height="20" transform-origin="627px 2004px" class="task task1"/><rect id="task54" rx="3" ry="3" x="373" y="1322" width="530" height="20" transform-origin="638px 1332px" class="task task0"/><rect id="task83" rx="3" ry="3" x="383" y="2018" width="530" height="20" transform-origin="648px 2028px" class="task task1"/><rect id="task84" rx="3" ry="3" x="395" y="2042" width="530" height="20" transform-origin="660px 2052px" class="task task1"/><rect id="task55" rx="3" ry="3" x="402" y="1346" width="530" height="20" transform-origin="667px 1356px" class="task task0"/><rect id="task39" rx="3" ry="3" x="402" y="962" width="530" height="20" transform-origin="667px 972px" class="task task3"/><rect id="task13" rx="3" ry="3" x="404" y="338" width="530" height="20" transform-origin="669px 348px" class="task task2"/><rect id="task24" rx="3" ry="3" x="404" y="602" width="530" height="20" transform-origin="669px 612px" class="task task0"/><rect id="task85" rx="3" ry="3" x="412" y="2066" width="530" height="20" transform-origin="677px 2076px" class="task task1"/><rect id="task112" rx="3" ry="3" x="422" y="2714" width="530" height="20" transform-origin="687px 2724px" class="task task2"/><rect id="task56" rx="3" ry="3" x="426" y="1370" width="529" height="20" transform-origin="690.5px 1380px" class="task task0"/><rect id="task86" rx="3" ry="3" x="428" y="2090" width="530" height="20" transform-origin="693px 2100px" class="task task1"/><rect id="task57" rx="3" ry="3" x="454" y="1394" width="530" height="20" transform-origin="719px 1404px" class="task task0"/><rect id="task87" rx="3" ry="3" x="455" y="2114" width="530" height="20" transform-origin="720px 2124px" class="task task1"/><rect id="task14" rx="3" ry="3" x="457" y="362" width="530" height="20" transform-origin="722px 372px" class="task task2"/><rect id="task35" rx="3" ry="3" x="460" y="866" width="530" height="20" transform-origin="725px 876px" class="task task2"/><rect id="task29" rx="3" ry="3" x="463" y="722" width="529" height="20" transform-origin="727.5px 732px" class="task task1"/><rect id="task88" rx="3" ry="3" x="474" y="2138" width="530" height="20" transform-origin="739px 2148px" class="task task1"/><rect id="task113" rx="3" ry="3" x="482" y="2738" width="530" height="20" transform-origin="747px 2748px" class="task task2"/><rect id="task58" rx="3" ry="3" x="487" y="1418" width="529" height="20" transform-origin="751.5px 1428px" class="task task0"/><rect id="task20" rx="3" ry="3" x="488" y="506" width="530" height="20" transform-origin="753px 516px" class="task task3"/><rect id="task40" rx="3" ry="3" x="492" y="986" width="530" height="20" transform-origin="757px 996px" class="task task3"/><rect id="task89" rx="3" ry="3" x="500" y="2162" width="529" height="20" transform-origin="764.5px 2172px" class="task task1"/><rect id="task59" rx="3" ry="3" x="509" y="1442" width="530" height="20" transform-origin="774px 1452px" class="task task0"/><rect id="task7" rx="3" ry="3" x="511" y="194" width="530" height="20" transform-origin="776px 204px" class="task task1"/><rect id="task30" rx="3" ry="3" x="513" y="746" width="530" height="20" transform-origin="778px 756px" class="task task1"/><rect id="task15" rx="3" ry="3" x="517" y="386" width="530" height="20" transform-origin="782px 396px" class="task task2"/><rect id="task90" rx="3" ry="3" x="520" y="2186" width="530" height="20" transform-origin="785px 2196px" class="task task1"/><rect id="task60" rx="3" ry="3" x="543" y="1466" width="530" height="20" transform-origin="808px 1476px" class="task task0"/><rect id="task8" rx="3" ry="3" x="557" y="218" width="530" height="20" transform-origin="822px 228px" class="task task1"/><rect id="task91" rx="3" ry="3" x="566" y="2210" width="530" height="20" transform-origin="831px 2220px" class="task task1"/><rect id="task61" rx="3" ry="3" x="574" y="1490" width="530" height="20" transform-origin="839px 1500px" class="task task0"/><rect id="task92" rx="3" ry="3" x="590" y="2234" width="529" height="20" transform-origin="854.5px 2244px" class="task task1"/><rect id="task3" rx="3" ry="3" x="593" y="98" width="795" height="20" transform-origin="990.5px 108px" class="task task0"/><rect id="task36" rx="3" ry="3" x="595" y="890" width="530" height="20" transform-origin="860px 900px" class="task task2"/><rect id="task62" rx="3" ry="3" x="606" y="1514" width="529" height="20" transform-origin="870.5px 1524px" class="task task0"/><rect id="task93" rx="3" ry="3" x="606" y="2258" width="530" height="20" transform-origin="871px 2268px" class="task task1"/><rect id="task63" rx="3" ry="3" x="627" y="1538" width="530" height="20" transform-origin="892px 1548px" class="task task0"/><rect id="task94" rx="3" ry="3" x="632" y="2282" width="530" height="20" transform-origin="897px 2292px" class="task task1"/><rect id="task9" rx="3" ry="3" x="638" y="242" width="530" height="20" transform-origin="903px 252px" class="task task1"/><rect id="task41" rx="3" ry="3" x="639" y="1010" width="530" height="20" transform-origin="904px 1020px" class="task task3"/><rect id="task31" rx="3" ry="3" x="642" y="770" width="530" height="20" transform-origin="907px 780px" class="task task1"/><rect id="task21" rx="3" ry="3" x="643" y="530" width="530" height="20" transform-origin="908px 540px" class="task task3"/><rect id="task95" rx="3" ry="3" x="647" y="2306" width="530" height="20" transform-origin="912px 2316px" class="task task1"/><rect id="task16" rx="3" ry="3" x="657" y="410" width="530" height="20" transform-origin="922px 420px" class="task task2"/><rect id="task64" rx="3" ry="3" x="657" y="1562" width="530" height="20" transform-origin="922px 1572px" class="task task0"/><rect id="task114" rx="3" ry="3" x="662" y="2762" width="529" height="20" transform-origin="926.5px 2772px" class="task task2"/><rect id="task96" rx="3" ry="3" x="677" y="2330" width="530" height="20" transform-origin="942px 2340px" class="task task1"/><rect id="task97" rx="3" ry="3" x="698" y="2354" width="530" height="20" transform-origin="963px 2364px" class="task task1"/><rect id="task102" rx="3" ry="3" x="698" y="2474" width="530" height="20" transform-origin="963px 2484px" class="task task1"/><rect id="task98" rx="3" ry="3" x="704" y="2378" width="529" height="20" transform-origin="968.5px 2388px" class="task task1"/><rect id="task65" rx="3" ry="3" x="712" y="1586" width="530" height="20" transform-origin="977px 1596px" class="task task0"/><rect id="task99" rx="3" ry="3" x="725" y="2402" width="530" height="20" transform-origin="990px 2412px" class="task task1"/><rect id="task103" rx="3" ry="3" x="725" y="2498" width="530" height="20" transform-origin="990px 2508px" class="task task1"/><rect id="task100" rx="3" ry="3" x="738" y="2426" width="530" height="20" transform-origin="1003px 2436px" class="task task1"/><rect id="task104" rx="3" ry="3" x="738" y="2522" width="530" height="20" transform-origin="1003px 2532px" class="task task1"/><rect id="task66" rx="3" ry="3" x="741" y="1610" width="530" height="20" transform-origin="1006px 1620px" class="task task0"/><rect id="task37" rx="3" ry="3" x="763" y="914" width="530" height="20" transform-origin="1028px 924px" class="task task2"/><rect id="task101" rx="3" ry="3" x="765" y="2450" width="529" height="20" transform-origin="1029.5px 2460px" class="task task1"/><rect id="task105" rx="3" ry="3" x="765" y="2546" width="529" height="20" transform-origin="1029.5px 2556px" class="task task1"/><rect id="task25" rx="3" ry="3" x="768" y="626" width="530" height="20" transform-origin="1033px 636px" class="task task0"/><rect id="task42" rx="3" ry="3" x="768" y="1034" width="530" height="20" transform-origin="1033px 1044px" class="task task3"/><rect id="task10" rx="3" ry="3" x="770" y="266" width="530" height="20" transform-origin="1035px 276px" class="task task1"/><rect id="task67" rx="3" ry="3" x="772" y="1634" width="530" height="20" transform-origin="1037px 1644px" class="task task0"/><rect id="task17" rx="3" ry="3" x="781" y="434" width="529" height="20" transform-origin="1045.5px 444px" class="task task2"/><rect id="task106" rx="3" ry="3" x="787" y="2570" width="530" height="20" transform-origin="1052px 2580px" class="task task1"/><rect id="task68" rx="3" ry="3" x="789" y="1658" width="529" height="20" transform-origin="1053.5px 1668px" class="task task0"/><rect id="task115" rx="3" ry="3" x="797" y="2786" width="530" height="20" transform-origin="1062px 2796px" class="task task2"/><rect id="task69" rx="3" ry="3" x="819" y="1682" width="530" height="20" transform-origin="1084px 1692px" class="task task0"/><rect id="task107" rx="3" ry="3" x="830" y="2594" width="530" height="20" transform-origin="1095px 2604px" class="task task1"/><rect id="task70" rx="3" ry="3" x="834" y="1706" width="530" height="20" transform-origin="1099px 1716px" class="task task0"/><rect id="task108" rx="3" ry="3" x="852" y="2618" width="530" height="20" transform-origin="1117px 2628px" class="task task1"/><rect id="task71" rx="3" ry="3" x="857" y="1730" width="530" height="20" transform-origin="1122px 1740px" class="task task0"/><rect id="task4" rx="3" ry="3" x="858" y="122" width="795" height="20" transform-origin="1255.5px 132px" class="task task0"/><text id="task1-text" font-size="11" x="472.5" y="63.5" class="taskText taskText0  width-21.421875">3.11 </text><text id="task11-text" font-size="11" x="391.5" y="303.5" class="taskText taskText2  width-30.59375">1.10.0 </text><text id="task72-text" font-size="11" x="391.5" y="1767.5" class="taskText taskText1  width-24.46875">8.8.0 </text><text id="task32-text" font-size="11" x="395" y="807.5" class="taskText taskText2  width-15.296875">3.0 </text><text id="task43-text" font-size="11" x="402" y="1071.5" class="taskText taskText0  width-42.828125">2023.1.0 </text><text id="task73-text" font-size="11" x="409" y="1791.5" class="taskText taskText1  width-24.46875">8.9.0 </text><text id="task44-text" font-size="11" x="417" y="1095.5" class="taskText taskText0  width-42.828125">2023.2.0 </text><text id="task74-text" font-size="11" x="419" y="1815.5" class="taskText taskText1  width-30.59375">8.10.0 </text><text id="task109-text" font-size="11" x="419" y="2655.5" class="taskText taskText2  width-30.59375">2.14.0 </text><text id="task18-text" font-size="11" x="421" y="471.5" class="taskText taskText3  width-24.46875">3.7.0 </text><text id="task26-text" font-size="11" x="432" y="663.5" class="taskText taskText1  width-30.59375">0.20.0 </text><text id="task75-text" font-size="11" x="432" y="1839.5" class="taskText taskText1  width-30.59375">8.11.0 </text><text id="task45-text" font-size="11" x="448" y="1119.5" class="taskText taskText0  width-42.828125">2023.3.0 </text><text id="task76-text" font-size="11" x="454" y="1863.5" class="taskText taskText1  width-30.59375">8.12.0 </text><text id="task22-text" font-size="11" x="457" y="567.5" class="taskText taskText0  width-24.46875">2.0.0 </text><text id="task33-text" font-size="11" x="457.5" y="831.5" class="taskText taskText2  width-15.296875">3.1 </text><text id="task46-text" font-size="11" x="465" y="1143.5" class="taskText taskText0  width-42.828125">2023.4.0 </text><text id="task77-text" font-size="11" x="475" y="1887.5" class="taskText taskText1  width-30.59375">8.13.0 </text><text id="task47-text" font-size="11" x="490" y="1167.5" class="taskText taskText0  width-42.828125">2023.5.0 </text><text id="task27-text" font-size="11" x="500" y="687.5" class="taskText taskText1  width-30.59375">0.21.0 </text><text id="task78-text" font-size="11" x="500" y="1911.5" class="taskText taskText1  width-30.59375">8.14.0 </text><text id="task110-text" font-size="11" x="509" y="2679.5" class="taskText taskText2  width-30.59375">2.15.0 </text><text id="task5-text" font-size="11" x="511" y="159.5" class="taskText taskText1  width-30.59375">1.25.0 </text><text id="task48-text" font-size="11" x="516" y="1191.5" class="taskText taskText0  width-42.828125">2023.6.0 </text><text id="task12-text" font-size="11" x="517" y="327.5" class="taskText taskText2  width-30.59375">1.11.0 </text><text id="task38-text" font-size="11" x="521" y="951.5" class="taskText taskText3  width-24.46875">1.3.0 </text><text id="task49-text" font-size="11" x="533" y="1215.5" class="taskText taskText0  width-42.828125">2023.7.0 </text><text id="task111-text" font-size="11" x="535" y="2703.5" class="taskText taskText2  width-30.59375">2.16.0 </text><text id="task50-text" font-size="11" x="558" y="1239.5" class="taskText taskText0  width-42.828125">2023.8.0 </text><text id="task23-text" font-size="11" x="565" y="591.5" class="taskText taskText0  width-24.46875">2.1.0 </text><text id="task79-text" font-size="11" x="566" y="1935.5" class="taskText taskText1  width-30.59375">8.15.0 </text><text id="task19-text" font-size="11" x="576.5" y="495.5" class="taskText taskText3  width-24.46875">3.8.0 </text><text id="task6-text" font-size="11" x="577" y="183.5" class="taskText taskText1  width-30.59375">1.26.0 </text><text id="task51-text" font-size="11" x="584.5" y="1263.5" class="taskText taskText0  width-42.828125">2023.9.0 </text><text id="task80-text" font-size="11" x="587" y="1959.5" class="taskText taskText1  width-30.59375">8.16.0 </text><text id="task2-text" font-size="11" x="721.5" y="87.5" class="taskText taskText0  width-21.421875">3.12 </text><text id="task28-text" font-size="11" x="590" y="711.5" class="taskText taskText1  width-30.59375">0.22.0 </text><text id="task34-text" font-size="11" x="601" y="855.5" class="taskText taskText2  width-15.296875">3.2 </text><text id="task52-text" font-size="11" x="601" y="1287.5" class="taskText taskText0  width-48.9375">2023.10.0 </text><text id="task81-text" font-size="11" x="609" y="1983.5" class="taskText taskText1  width-30.59375">8.17.0 </text><text id="task53-text" font-size="11" x="622" y="1311.5" class="taskText taskText0  width-48.9375">2023.11.0 </text><text id="task82-text" font-size="11" x="627" y="2007.5" class="taskText taskText1  width-30.59375">8.18.0 </text><text id="task54-text" font-size="11" x="638" y="1335.5" class="taskText taskText0  width-48.9375">2023.12.0 </text><text id="task83-text" font-size="11" x="648" y="2031.5" class="taskText taskText1  width-30.59375">8.19.0 </text><text id="task84-text" font-size="11" x="660" y="2055.5" class="taskText taskText1  width-30.59375">8.20.0 </text><text id="task55-text" font-size="11" x="667" y="1359.5" class="taskText taskText0  width-42.828125">2024.1.0 </text><text id="task39-text" font-size="11" x="667" y="975.5" class="taskText taskText3  width-24.46875">1.4.0 </text><text id="task13-text" font-size="11" x="669" y="351.5" class="taskText taskText2  width-30.59375">1.12.0 </text><text id="task24-text" font-size="11" x="669" y="615.5" class="taskText taskText0  width-24.46875">2.2.0 </text><text id="task85-text" font-size="11" x="677" y="2079.5" class="taskText taskText1  width-30.59375">8.21.0 </text><text id="task112-text" font-size="11" x="687" y="2727.5" class="taskText taskText2  width-30.59375">2.17.0 </text><text id="task56-text" font-size="11" x="690.5" y="1383.5" class="taskText taskText0  width-42.828125">2024.2.0 </text><text id="task86-text" font-size="11" x="693" y="2103.5" class="taskText taskText1  width-30.59375">8.22.0 </text><text id="task57-text" font-size="11" x="719" y="1407.5" class="taskText taskText0  width-42.828125">2024.3.0 </text><text id="task87-text" font-size="11" x="720" y="2127.5" class="taskText taskText1  width-30.59375">8.23.0 </text><text id="task14-text" font-size="11" x="722" y="375.5" class="taskText taskText2  width-30.59375">1.13.0 </text><text id="task35-text" font-size="11" x="725" y="879.5" class="taskText taskText2  width-15.296875">3.3 </text><text id="task29-text" font-size="11" x="727.5" y="735.5" class="taskText taskText1  width-30.59375">0.23.0 </text><text id="task88-text" font-size="11" x="739" y="2151.5" class="taskText taskText1  width-30.59375">8.24.0 </text><text id="task113-text" font-size="11" x="747" y="2751.5" class="taskText taskText2  width-30.59375">2.18.0 </text><text id="task58-text" font-size="11" x="751.5" y="1431.5" class="taskText taskText0  width-42.828125">2024.5.0 </text><text id="task20-text" font-size="11" x="753" y="519.5" class="taskText taskText3  width-24.46875">3.9.0 </text><text id="task40-text" font-size="11" x="757" y="999.5" class="taskText taskText3  width-24.46875">1.5.0 </text><text id="task89-text" font-size="11" x="764.5" y="2175.5" class="taskText taskText1  width-30.59375">8.25.0 </text><text id="task59-text" font-size="11" x="774" y="1455.5" class="taskText taskText0  width-42.828125">2024.6.0 </text><text id="task7-text" font-size="11" x="776" y="207.5" class="taskText taskText1  width-24.46875">2.0.0 </text><text id="task30-text" font-size="11" x="778" y="759.5" class="taskText taskText1  width-30.59375">0.24.0 </text><text id="task15-text" font-size="11" x="782" y="399.5" class="taskText taskText2  width-30.59375">1.14.0 </text><text id="task90-text" font-size="11" x="785" y="2199.5" class="taskText taskText1  width-30.59375">8.26.0 </text><text id="task60-text" font-size="11" x="808" y="1479.5" class="taskText taskText0  width-42.828125">2024.7.0 </text><text id="task8-text" font-size="11" x="822" y="231.5" class="taskText taskText1  width-24.46875">2.1.0 </text><text id="task91-text" font-size="11" x="831" y="2223.5" class="taskText taskText1  width-30.59375">8.27.0 </text><text id="task61-text" font-size="11" x="839" y="1503.5" class="taskText taskText0  width-42.828125">2024.9.0 </text><text id="task92-text" font-size="11" x="854.5" y="2247.5" class="taskText taskText1  width-30.59375">8.28.0 </text><text id="task3-text" font-size="11" x="990.5" y="111.5" class="taskText taskText0  width-21.421875">3.13 </text><text id="task36-text" font-size="11" x="860" y="903.5" class="taskText taskText2  width-15.296875">3.4 </text><text id="task62-text" font-size="11" x="870.5" y="1527.5" class="taskText taskText0  width-48.9375">2024.10.0 </text><text id="task93-text" font-size="11" x="871" y="2271.5" class="taskText taskText1  width-30.59375">8.29.0 </text><text id="task63-text" font-size="11" x="892" y="1551.5" class="taskText taskText0  width-48.9375">2024.11.0 </text><text id="task94-text" font-size="11" x="897" y="2295.5" class="taskText taskText1  width-30.59375">8.30.0 </text><text id="task9-text" font-size="11" x="903" y="255.5" class="taskText taskText1  width-24.46875">2.2.0 </text><text id="task41-text" font-size="11" x="904" y="1023.5" class="taskText taskText3  width-24.46875">1.6.0 </text><text id="task31-text" font-size="11" x="907" y="783.5" class="taskText taskText1  width-30.59375">0.25.0 </text><text id="task21-text" font-size="11" x="908" y="543.5" class="taskText taskText3  width-30.59375">3.10.0 </text><text id="task95-text" font-size="11" x="912" y="2319.5" class="taskText taskText1  width-30.59375">8.31.0 </text><text id="task16-text" font-size="11" x="922" y="423.5" class="taskText taskText2  width-30.59375">1.15.0 </text><text id="task64-text" font-size="11" x="922" y="1575.5" class="taskText taskText0  width-42.828125">2025.1.0 </text><text id="task114-text" font-size="11" x="926.5" y="2775.5" class="taskText taskText2  width-24.46875">3.0.0 </text><text id="task96-text" font-size="11" x="942" y="2343.5" class="taskText taskText1  width-30.59375">8.32.0 </text><text id="task97-text" font-size="11" x="963" y="2367.5" class="taskText taskText1  width-30.59375">8.33.0 </text><text id="task102-text" font-size="11" x="963" y="2487.5" class="taskText taskText1  width-24.46875">9.0.0 </text><text id="task98-text" font-size="11" x="968.5" y="2391.5" class="taskText taskText1  width-30.59375">8.34.0 </text><text id="task65-text" font-size="11" x="977" y="1599.5" class="taskText taskText0  width-42.828125">2025.3.0 </text><text id="task99-text" font-size="11" x="990" y="2415.5" class="taskText taskText1  width-30.59375">8.35.0 </text><text id="task103-text" font-size="11" x="990" y="2511.5" class="taskText taskText1  width-24.46875">9.1.0 </text><text id="task100-text" font-size="11" x="1003" y="2439.5" class="taskText taskText1  width-30.59375">8.36.0 </text><text id="task104-text" font-size="11" x="1003" y="2535.5" class="taskText taskText1  width-24.46875">9.2.0 </text><text id="task66-text" font-size="11" x="1006" y="1623.5" class="taskText taskText0  width-42.828125">2025.4.0 </text><text id="task37-text" font-size="11" x="1028" y="927.5" class="taskText taskText2  width-15.296875">3.5 </text><text id="task101-text" font-size="11" x="1029.5" y="2463.5" class="taskText taskText1  width-30.59375">8.37.0 </text><text id="task105-text" font-size="11" x="1029.5" y="2559.5" class="taskText taskText1  width-24.46875">9.3.0 </text><text id="task25-text" font-size="11" x="1033" y="639.5" class="taskText taskText0  width-24.46875">2.3.0 </text><text id="task42-text" font-size="11" x="1033" y="1047.5" class="taskText taskText3  width-24.46875">1.7.0 </text><text id="task10-text" font-size="11" x="1035" y="279.5" class="taskText taskText1  width-24.46875">2.3.0 </text><text id="task67-text" font-size="11" x="1037" y="1647.5" class="taskText taskText0  width-42.828125">2025.6.0 </text><text id="task17-text" font-size="11" x="1045.5" y="447.5" class="taskText taskText2  width-30.59375">1.16.0 </text><text id="task106-text" font-size="11" x="1052" y="2583.5" class="taskText taskText1  width-24.46875">9.4.0 </text><text id="task68-text" font-size="11" x="1053.5" y="1671.5" class="taskText taskText0  width-42.828125">2025.7.0 </text><text id="task115-text" font-size="11" x="1062" y="2799.5" class="taskText taskText2  width-24.46875">3.1.0 </text><text id="task69-text" font-size="11" x="1084" y="1695.5" class="taskText taskText0  width-42.828125">2025.8.0 </text><text id="task107-text" font-size="11" x="1095" y="2607.5" class="taskText taskText1  width-24.46875">9.5.0 </text><text id="task70-text" font-size="11" x="1099" y="1719.5" class="taskText taskText0  width-42.828125">2025.9.0 </text><text id="task108-text" font-size="11" x="1117" y="2631.5" class="taskText taskText1  width-24.46875">9.6.0 </text><text id="task71-text" font-size="11" x="1122" y="1743.5" class="taskText taskText0  width-48.9375">2025.10.0 </text><text id="task4-text" font-size="11" x="1255.5" y="135.5" class="taskText taskText0  width-21.421875">3.14 </text></g><g><text dy="0em" x="10" y="98" font-size="11" class="sectionTitle sectionTitle0"><tspan alignment-baseline="central" x="10">python</tspan></text><text dy="0em" x="10" y="218" font-size="11" class="sectionTitle sectionTitle1"><tspan alignment-baseline="central" x="10">numpy</tspan></text><text dy="0em" x="10" y="374" font-size="11" class="sectionTitle sectionTitle2"><tspan alignment-baseline="central" x="10">scipy</tspan></text><text dy="0em" x="10" y="506" font-size="11" class="sectionTitle sectionTitle3"><tspan alignment-baseline="central" x="10">matplotlib</tspan></text><text dy="0em" x="10" y="602" font-size="11" class="sectionTitle sectionTitle0"><tspan alignment-baseline="central" x="10">pandas</tspan></text><text dy="0em" x="10" y="722" font-size="11" class="sectionTitle sectionTitle1"><tspan alignment-baseline="central" x="10">scikit-image</tspan></text><text dy="0em" x="10" y="866" font-size="11" class="sectionTitle sectionTitle2"><tspan alignment-baseline="central" x="10">networkx</tspan></text><text dy="0em" x="10" y="998" font-size="11" class="sectionTitle sectionTitle3"><tspan alignment-baseline="central" x="10">scikit-learn</tspan></text><text dy="0em" x="10" y="1406" font-size="11" class="sectionTitle sectionTitle0"><tspan alignment-baseline="central" x="10">xarray</tspan></text><text dy="0em" x="10" y="2198" font-size="11" class="sectionTitle sectionTitle1"><tspan alignment-baseline="central" x="10">ipython</tspan></text><text dy="0em" x="10" y="2726" font-size="11" class="sectionTitle sectionTitle2"><tspan alignment-baseline="central" x="10">zarr</tspan></text></g><g class="today"><line x1="874" x2="874" y1="25" y2="2835" class="today"/></g><text x="864" y="25" class="titleText">Support Window</text></svg>