<?xml version="1.0" encoding="UTF-8"?>
<?xml-stylesheet href="https://cdnjs.cloudflare.com/ajax/libs/font-awesome/6.5.2/css/all.min.css" type="text/css"?>
<svg aria-roledescription="gantt" role="graphics-document document" style="max-width: 100%;" viewBox="0 0 1536 2740" xmlns="http://www.w3.org/2000/svg" width="100%" id="graph-div" height="100%" xmlns:xlink="http://www.w3.org/1999/xlink"><style>#graph-div{font-family:"trebuchet ms",verdana,arial,sans-serif;font-size:16px;fill:#333;}#graph-div .error-icon{fill:#552222;}#graph-div .error-text{fill:#552222;stroke:#552222;}#graph-div .edge-thickness-normal{stroke-width:2px;}#graph-div .edge-thickness-thick{stroke-width:3.5px;}#graph-div .edge-pattern-solid{stroke-dasharray:0;}#graph-div .edge-pattern-dashed{stroke-dasharray:3;}#graph-div .edge-pattern-dotted{stroke-dasharray:2;}#graph-div .marker{fill:#333333;stroke:#333333;}#graph-div .marker.cross{stroke:#333333;}#graph-div svg{font-family:"trebuchet ms",verdana,arial,sans-serif;font-size:16px;}#graph-div .mermaid-main-font{font-family:var(--mermaid-font-family, "trebuchet ms", verdana, arial, sans-serif);}#graph-div .exclude-range{fill:#eeeeee;}#graph-div .section{stroke:none;opacity:0.2;}#graph-div .section0{fill:rgba(102, 102, 255, 0.49);}#graph-div .section2{fill:#fff400;}#graph-div .section1,#graph-div .section3{fill:white;opacity:0.2;}#graph-div .sectionTitle0{fill:#333;}#graph-div .sectionTitle1{fill:#333;}#graph-div .sectionTitle2{fill:#333;}#graph-div .sectionTitle3{fill:#333;}#graph-div .sectionTitle{text-anchor:start;font-family:var(--mermaid-font-family, "trebuchet ms", verdana, arial, sans-serif);}#graph-div .grid .tick{stroke:lightgrey;opacity:0.8;shape-rendering:crispEdges;}#graph-div .grid .tick text{font-family:"trebuchet ms",verdana,arial,sans-serif;fill:#333;}#graph-div .grid path{stroke-width:0;}#graph-div .today{fill:none;stroke:red;stroke-width:2px;}#graph-div .task{stroke-width:2;}#graph-div .taskText{text-anchor:middle;font-family:var(--mermaid-font-family, "trebuchet ms", verdana, arial, sans-serif);}#graph-div .taskTextOutsideRight{fill:black;text-anchor:start;font-family:var(--mermaid-font-family, "trebuchet ms", verdana, arial, sans-serif);}#graph-div .taskTextOutsideLeft{fill:black;text-anchor:end;}#graph-div .task.clickable{cursor:pointer;}#graph-div .taskText.clickable{cursor:pointer;fill:#003163!important;font-weight:bold;}#graph-div .taskTextOutsideLeft.clickable{cursor:pointer;fill:#003163!important;font-weight:bold;}#graph-div .taskTextOutsideRight.clickable{cursor:pointer;fill:#003163!important;font-weight:bold;}#graph-div .taskText0,#graph-div .taskText1,#graph-div .taskText2,#graph-div .taskText3{fill:white;}#graph-div .task0,#graph-div .task1,#graph-div .task2,#graph-div .task3{fill:#8a90dd;stroke:#534fbc;}#graph-div .taskTextOutside0,#graph-div .taskTextOutside2{fill:black;}#graph-div .taskTextOutside1,#graph-div .taskTextOutside3{fill:black;}#graph-div .active0,#graph-div .active1,#graph-div .active2,#graph-div .active3{fill:#bfc7ff;stroke:#534fbc;}#graph-div .activeText0,#graph-div .activeText1,#graph-div .activeText2,#graph-div .activeText3{fill:black!important;}#graph-div .done0,#graph-div .done1,#graph-div .done2,#graph-div .done3{stroke:grey;fill:lightgrey;stroke-width:2;}#graph-div .doneText0,#graph-div .doneText1,#graph-div .doneText2,#graph-div .doneText3{fill:black!important;}#graph-div .crit0,#graph-div .crit1,#graph-div .crit2,#graph-div .crit3{stroke:#ff8888;fill:red;stroke-width:2;}#graph-div .activeCrit0,#graph-div .activeCrit1,#graph-div .activeCrit2,#graph-div .activeCrit3{stroke:#ff8888;fill:#bfc7ff;stroke-width:2;}#graph-div .doneCrit0,#graph-div .doneCrit1,#graph-div .doneCrit2,#graph-div .doneCrit3{stroke:#ff8888;fill:lightgrey;stroke-width:2;cursor:pointer;shape-rendering:crispEdges;}#graph-div .milestone{transform:rotate(45deg) scale(0.8,0.8);}#graph-div .milestoneText{font-style:italic;}#graph-div .doneCritText0,#graph-div .doneCritText1,#graph-div .doneCritText2,#graph-div .doneCritText3{fill:black!important;}#graph-div .activeCritText0,#graph-div .activeCritText1,#graph-div .activeCritText2,#graph-div .activeCritText3{fill:black!important;}#graph-div .titleText{text-anchor:middle;font-size:18px;fill:#333;font-family:var(--mermaid-font-family, "trebuchet ms", verdana, arial, sans-serif);}#graph-div :root{--mermaid-font-family:"trebuchet ms",verdana,arial,sans-serif;}</style><g></g><g text-anchor="middle" font-family="sans-serif" font-size="10" fill="none" transform="translate(75, 2690)" class="grid"><path d="M0,-2655V0H1386V-2655" stroke="currentColor" class="domain"></path><g transform="translate(56,0)" opacity="1" class="tick"><line y2="-2655" stroke="currentColor"></line><text style="text-anchor: middle;" font-size="10" stroke="none" dy="1em" y="3" fill="#000">01 / 2021</text></g><g transform="translate(287,0)" opacity="1" class="tick"><line y2="-2655" stroke="currentColor"></line><text style="text-anchor: middle;" font-size="10" stroke="none" dy="1em" y="3" fill="#000">01 / 2022</text></g><g transform="translate(518,0)" opacity="1" class="tick"><line y2="-2655" stroke="currentColor"></line><text style="text-anchor: middle;" font-size="10" stroke="none" dy="1em" y="3" fill="#000">01 / 2023</text></g><g transform="translate(750,0)" opacity="1" class="tick"><line y2="-2655" stroke="currentColor"></line><text style="text-anchor: middle;" font-size="10" stroke="none" dy="1em" y="3" fill="#000">01 / 2024</text></g><g transform="translate(982,0)" opacity="1" class="tick"><line y2="-2655" stroke="currentColor"></line><text style="text-anchor: middle;" font-size="10" stroke="none" dy="1em" y="3" fill="#000">01 / 2025</text></g><g transform="translate(1213,0)" opacity="1" class="tick"><line y2="-2655" stroke="currentColor"></line><text style="text-anchor: middle;" font-size="10" stroke="none" dy="1em" y="3" fill="#000">01 / 2026</text></g></g><g><rect class="section section0" height="24" width="1498.5" y="48" x="0"></rect><rect class="section section0" height="24" width="1498.5" y="72" x="0"></rect><rect class="section section1" height="24" width="1498.5" y="1704" x="0"></rect><rect class="section section0" height="24" width="1498.5" y="1104" x="0"></rect><rect class="section section3" height="24" width="1498.5" y="456" x="0"></rect><rect class="section section1" height="24" width="1498.5" y="1728" x="0"></rect><rect class="section section1" height="24" width="1498.5" y="696" x="0"></rect><rect class="section section1" height="24" width="1498.5" y="144" x="0"></rect><rect class="section section1" height="24" width="1498.5" y="1752" x="0"></rect><rect class="section section1" height="24" width="1498.5" y="1848" x="0"></rect><rect class="section section0" height="24" width="1498.5" y="576" x="0"></rect><rect class="section section0" height="24" width="1498.5" y="1128" x="0"></rect><rect class="section section2" height="24" width="1498.5" y="288" x="0"></rect><rect class="section section2" height="24" width="1498.5" y="2496" x="0"></rect><rect class="section section1" height="24" width="1498.5" y="1776" x="0"></rect><rect class="section section1" height="24" width="1498.5" y="1872" x="0"></rect><rect class="section section2" height="24" width="1498.5" y="840" x="0"></rect><rect class="section section0" height="24" width="1498.5" y="1152" x="0"></rect><rect class="section section1" height="24" width="1498.5" y="1896" x="0"></rect><rect class="section section2" height="24" width="1498.5" y="864" x="0"></rect><rect class="section section1" height="24" width="1498.5" y="1800" x="0"></rect><rect class="section section1" height="24" width="1498.5" y="1920" x="0"></rect><rect class="section section3" height="24" width="1498.5" y="984" x="0"></rect><rect class="section section1" height="24" width="1498.5" y="1824" x="0"></rect><rect class="section section1" height="24" width="1498.5" y="1944" x="0"></rect><rect class="section section1" height="24" width="1498.5" y="168" x="0"></rect><rect class="section section2" height="24" width="1498.5" y="2520" x="0"></rect><rect class="section section0" height="24" width="1498.5" y="1176" x="0"></rect><rect class="section section2" height="24" width="1498.5" y="312" x="0"></rect><rect class="section section1" height="24" width="1498.5" y="1968" x="0"></rect><rect class="section section3" height="24" width="1498.5" y="480" x="0"></rect><rect class="section section0" height="24" width="1498.5" y="600" x="0"></rect><rect class="section section2" height="24" width="1498.5" y="2544" x="0"></rect><rect class="section section0" height="24" width="1498.5" y="1200" x="0"></rect><rect class="section section0" height="24" width="1498.5" y="1224" x="0"></rect><rect class="section section0" height="24" width="1498.5" y="96" x="0"></rect><rect class="section section1" height="24" width="1498.5" y="1992" x="0"></rect><rect class="section section0" height="24" width="1498.5" y="1248" x="0"></rect><rect class="section section1" height="24" width="1498.5" y="2016" x="0"></rect><rect class="section section0" height="24" width="1498.5" y="1272" x="0"></rect><rect class="section section3" height="24" width="1498.5" y="1008" x="0"></rect><rect class="section section1" height="24" width="1498.5" y="192" x="0"></rect><rect class="section section2" height="24" width="1498.5" y="336" x="0"></rect><rect class="section section1" height="24" width="1498.5" y="2040" x="0"></rect><rect class="section section2" height="24" width="1498.5" y="888" x="0"></rect><rect class="section section0" height="24" width="1498.5" y="1296" x="0"></rect><rect class="section section1" height="24" width="1498.5" y="2064" x="0"></rect><rect class="section section0" height="24" width="1498.5" y="1320" x="0"></rect><rect class="section section1" height="24" width="1498.5" y="2088" x="0"></rect><rect class="section section2" height="24" width="1498.5" y="2568" x="0"></rect><rect class="section section3" height="24" width="1498.5" y="504" x="0"></rect><rect class="section section1" height="24" width="1498.5" y="720" x="0"></rect><rect class="section section1" height="24" width="1498.5" y="2112" x="0"></rect><rect class="section section0" height="24" width="1498.5" y="1344" x="0"></rect><rect class="section section1" height="24" width="1498.5" y="2136" x="0"></rect><rect class="section section0" height="24" width="1498.5" y="624" x="0"></rect><rect class="section section2" height="24" width="1498.5" y="912" x="0"></rect><rect class="section section0" height="24" width="1498.5" y="1368" x="0"></rect><rect class="section section1" height="24" width="1498.5" y="2160" x="0"></rect><rect class="section section0" height="24" width="1498.5" y="1392" x="0"></rect><rect class="section section1" height="24" width="1498.5" y="744" x="0"></rect><rect class="section section1" height="24" width="1498.5" y="2184" x="0"></rect><rect class="section section2" height="24" width="1498.5" y="2592" x="0"></rect><rect class="section section1" height="24" width="1498.5" y="216" x="0"></rect><rect class="section section0" height="24" width="1498.5" y="1416" x="0"></rect><rect class="section section2" height="24" width="1498.5" y="360" x="0"></rect><rect class="section section3" height="24" width="1498.5" y="1032" x="0"></rect><rect class="section section0" height="24" width="1498.5" y="1440" x="0"></rect><rect class="section section2" height="24" width="1498.5" y="2616" x="0"></rect><rect class="section section0" height="24" width="1498.5" y="1464" x="0"></rect><rect class="section section0" height="24" width="1498.5" y="648" x="0"></rect><rect class="section section1" height="24" width="1498.5" y="2208" x="0"></rect><rect class="section section3" height="24" width="1498.5" y="528" x="0"></rect><rect class="section section1" height="24" width="1498.5" y="240" x="0"></rect><rect class="section section0" height="24" width="1498.5" y="1488" x="0"></rect><rect class="section section1" height="24" width="1498.5" y="2232" x="0"></rect><rect class="section section0" height="24" width="1498.5" y="120" x="0"></rect><rect class="section section1" height="24" width="1498.5" y="768" x="0"></rect><rect class="section section2" height="24" width="1498.5" y="936" x="0"></rect><rect class="section section0" height="24" width="1498.5" y="1512" x="0"></rect><rect class="section section1" height="24" width="1498.5" y="2256" x="0"></rect><rect class="section section0" height="24" width="1498.5" y="1536" x="0"></rect><rect class="section section1" height="24" width="1498.5" y="2280" x="0"></rect><rect class="section section0" height="24" width="1498.5" y="1560" x="0"></rect><rect class="section section1" height="24" width="1498.5" y="2304" x="0"></rect><rect class="section section1" height="24" width="1498.5" y="2328" x="0"></rect><rect class="section section0" height="24" width="1498.5" y="1584" x="0"></rect><rect class="section section3" height="24" width="1498.5" y="1056" x="0"></rect><rect class="section section2" height="24" width="1498.5" y="384" x="0"></rect><rect class="section section0" height="24" width="1498.5" y="672" x="0"></rect><rect class="section section1" height="24" width="1498.5" y="2352" x="0"></rect><rect class="section section2" height="24" width="1498.5" y="2640" x="0"></rect><rect class="section section0" height="24" width="1498.5" y="1608" x="0"></rect><rect class="section section1" height="24" width="1498.5" y="2376" x="0"></rect><rect class="section section0" height="24" width="1498.5" y="1632" x="0"></rect><rect class="section section1" height="24" width="1498.5" y="2400" x="0"></rect><rect class="section section2" height="24" width="1498.5" y="408" x="0"></rect><rect class="section section2" height="24" width="1498.5" y="960" x="0"></rect><rect class="section section1" height="24" width="1498.5" y="792" x="0"></rect><rect class="section section1" height="24" width="1498.5" y="2424" x="0"></rect><rect class="section section2" height="24" width="1498.5" y="2664" x="0"></rect><rect class="section section0" height="24" width="1498.5" y="1656" x="0"></rect><rect class="section section3" height="24" width="1498.5" y="552" x="0"></rect><rect class="section section3" height="24" width="1498.5" y="1080" x="0"></rect><rect class="section section1" height="24" width="1498.5" y="2448" x="0"></rect><rect class="section section0" height="24" width="1498.5" y="1680" x="0"></rect><rect class="section section1" height="24" width="1498.5" y="264" x="0"></rect><rect class="section section1" height="24" width="1498.5" y="816" x="0"></rect><rect class="section section2" height="24" width="1498.5" y="432" x="0"></rect><rect class="section section1" height="24" width="1498.5" y="2472" x="0"></rect></g><g><rect class="task task0" transform-origin="422px 60px" height="20" width="694" y="50" x="75" ry="3" rx="3" id="task1"></rect><rect class="task task0" transform-origin="653px 84px" height="20" width="694" y="74" x="306" ry="3" rx="3" id="task2"></rect><rect class="task task1" transform-origin="553.5px 1716px" height="20" width="463" y="1706" x="322" ry="3" rx="3" id="task70"></rect><rect class="task task0" transform-origin="555.5px 1116px" height="20" width="463" y="1106" x="324" ry="3" rx="3" id="task45"></rect><rect class="task task3" transform-origin="564.5px 468px" height="20" width="463" y="458" x="333" ry="3" rx="3" id="task18"></rect><rect class="task task1" transform-origin="570.5px 1740px" height="20" width="463" y="1730" x="339" ry="3" rx="3" id="task71"></rect><rect class="task task1" transform-origin="575px 708px" height="20" width="462" y="698" x="344" ry="3" rx="3" id="task28"></rect><rect class="task task1" transform-origin="592.5px 156px" height="20" width="463" y="146" x="361" ry="3" rx="3" id="task5"></rect><rect class="task task1" transform-origin="596px 1764px" height="20" width="462" y="1754" x="365" ry="3" rx="3" id="task72"></rect><rect class="task task1" transform-origin="600.5px 1860px" height="20" width="463" y="1850" x="369" ry="3" rx="3" id="task76"></rect><rect class="task task0" transform-origin="606.5px 588px" height="20" width="463" y="578" x="375" ry="3" rx="3" id="task23"></rect><rect class="task task0" transform-origin="610.5px 1140px" height="20" width="463" y="1130" x="379" ry="3" rx="3" id="task46"></rect><rect class="task task2" transform-origin="615.5px 300px" height="20" width="463" y="290" x="384" ry="3" rx="3" id="task11"></rect><rect class="task task2" transform-origin="617px 2508px" height="20" width="462" y="2498" x="386" ry="3" rx="3" id="task103"></rect><rect class="task task1" transform-origin="628.5px 1788px" height="20" width="463" y="1778" x="397" ry="3" rx="3" id="task73"></rect><rect class="task task1" transform-origin="628.5px 1884px" height="20" width="463" y="1874" x="397" ry="3" rx="3" id="task77"></rect><rect class="task task2" transform-origin="630.5px 852px" height="20" width="463" y="842" x="399" ry="3" rx="3" id="task34"></rect><rect class="task task0" transform-origin="631.5px 1164px" height="20" width="463" y="1154" x="400" ry="3" rx="3" id="task47"></rect><rect class="task task1" transform-origin="647.5px 1908px" height="20" width="463" y="1898" x="416" ry="3" rx="3" id="task78"></rect><rect class="task task2" transform-origin="655.5px 876px" height="20" width="463" y="866" x="424" ry="3" rx="3" id="task35"></rect><rect class="task task1" transform-origin="668.5px 1812px" height="20" width="463" y="1802" x="437" ry="3" rx="3" id="task74"></rect><rect class="task task1" transform-origin="668.5px 1932px" height="20" width="463" y="1922" x="437" ry="3" rx="3" id="task79"></rect><rect class="task task3" transform-origin="676.5px 996px" height="20" width="463" y="986" x="445" ry="3" rx="3" id="task40"></rect><rect class="task task1" transform-origin="686.5px 1836px" height="20" width="463" y="1826" x="455" ry="3" rx="3" id="task75"></rect><rect class="task task1" transform-origin="686.5px 1956px" height="20" width="463" y="1946" x="455" ry="3" rx="3" id="task80"></rect><rect class="task task1" transform-origin="702.5px 180px" height="20" width="463" y="170" x="471" ry="3" rx="3" id="task6"></rect><rect class="task task2" transform-origin="703px 2532px" height="20" width="462" y="2522" x="472" ry="3" rx="3" id="task104"></rect><rect class="task task0" transform-origin="721.5px 1188px" height="20" width="463" y="1178" x="490" ry="3" rx="3" id="task48"></rect><rect class="task task2" transform-origin="726px 324px" height="20" width="462" y="314" x="495" ry="3" rx="3" id="task12"></rect><rect class="task task1" transform-origin="750.5px 1980px" height="20" width="463" y="1970" x="519" ry="3" rx="3" id="task81"></rect><rect class="task task3" transform-origin="757px 492px" height="20" width="462" y="482" x="526" ry="3" rx="3" id="task19"></rect><rect class="task task0" transform-origin="758.5px 612px" height="20" width="463" y="602" x="527" ry="3" rx="3" id="task24"></rect><rect class="task task2" transform-origin="760.5px 2556px" height="20" width="463" y="2546" x="529" ry="3" rx="3" id="task105"></rect><rect class="task task0" transform-origin="765px 1212px" height="20" width="462" y="1202" x="534" ry="3" rx="3" id="task49"></rect><rect class="task task0" transform-origin="774px 1236px" height="20" width="462" y="1226" x="543" ry="3" rx="3" id="task50"></rect><rect class="task task0" transform-origin="897px 108px" height="20" width="694" y="98" x="550" ry="3" rx="3" id="task3"></rect><rect class="task task1" transform-origin="784.5px 2004px" height="20" width="463" y="1994" x="553" ry="3" rx="3" id="task82"></rect><rect class="task task0" transform-origin="788px 1260px" height="20" width="462" y="1250" x="557" ry="3" rx="3" id="task51"></rect><rect class="task task1" transform-origin="803.5px 2028px" height="20" width="463" y="2018" x="572" ry="3" rx="3" id="task83"></rect><rect class="task task0" transform-origin="805.5px 1284px" height="20" width="463" y="1274" x="574" ry="3" rx="3" id="task52"></rect><rect class="task task3" transform-origin="809.5px 1020px" height="20" width="463" y="1010" x="578" ry="3" rx="3" id="task41"></rect><rect class="task task1" transform-origin="816px 204px" height="20" width="462" y="194" x="585" ry="3" rx="3" id="task7"></rect><rect class="task task2" transform-origin="826px 348px" height="20" width="462" y="338" x="595" ry="3" rx="3" id="task13"></rect><rect class="task task1" transform-origin="826px 2052px" height="20" width="462" y="2042" x="595" ry="3" rx="3" id="task84"></rect><rect class="task task2" transform-origin="829px 900px" height="20" width="462" y="890" x="598" ry="3" rx="3" id="task36"></rect><rect class="task task0" transform-origin="835.5px 1308px" height="20" width="463" y="1298" x="604" ry="3" rx="3" id="task53"></rect><rect class="task task1" transform-origin="841.5px 2076px" height="20" width="463" y="2066" x="610" ry="3" rx="3" id="task85"></rect><rect class="task task0" transform-origin="848.5px 1332px" height="20" width="463" y="1322" x="617" ry="3" rx="3" id="task54"></rect><rect class="task task1" transform-origin="850px 2100px" height="20" width="462" y="2090" x="619" ry="3" rx="3" id="task86"></rect><rect class="task task2" transform-origin="850px 2580px" height="20" width="462" y="2570" x="619" ry="3" rx="3" id="task106"></rect><rect class="task task3" transform-origin="852px 516px" height="20" width="462" y="506" x="621" ry="3" rx="3" id="task20"></rect><rect class="task task1" transform-origin="861.5px 732px" height="20" width="463" y="722" x="630" ry="3" rx="3" id="task29"></rect><rect class="task task1" transform-origin="861.5px 2124px" height="20" width="463" y="2114" x="630" ry="3" rx="3" id="task87"></rect><rect class="task task0" transform-origin="875.5px 1356px" height="20" width="463" y="1346" x="644" ry="3" rx="3" id="task55"></rect><rect class="task task1" transform-origin="880.5px 2148px" height="20" width="463" y="2138" x="649" ry="3" rx="3" id="task88"></rect><rect class="task task0" transform-origin="883px 636px" height="20" width="462" y="626" x="652" ry="3" rx="3" id="task25"></rect><rect class="task task2" transform-origin="883.5px 924px" height="20" width="463" y="914" x="652" ry="3" rx="3" id="task37"></rect><rect class="task task0" transform-origin="890px 1380px" height="20" width="462" y="1370" x="659" ry="3" rx="3" id="task56"></rect><rect class="task task1" transform-origin="899px 2172px" height="20" width="462" y="2162" x="668" ry="3" rx="3" id="task89"></rect><rect class="task task0" transform-origin="912px 1404px" height="20" width="462" y="1394" x="681" ry="3" rx="3" id="task57"></rect><rect class="task task1" transform-origin="921px 756px" height="20" width="462" y="746" x="690" ry="3" rx="3" id="task30"></rect><rect class="task task1" transform-origin="921px 2196px" height="20" width="462" y="2186" x="690" ry="3" rx="3" id="task90"></rect><rect class="task task2" transform-origin="928.5px 2604px" height="20" width="463" y="2594" x="697" ry="3" rx="3" id="task107"></rect><rect class="task task1" transform-origin="930.5px 228px" height="20" width="463" y="218" x="699" ry="3" rx="3" id="task8"></rect><rect class="task task0" transform-origin="934.5px 1428px" height="20" width="463" y="1418" x="703" ry="3" rx="3" id="task58"></rect><rect class="task task2" transform-origin="935.5px 372px" height="20" width="463" y="362" x="704" ry="3" rx="3" id="task14"></rect><rect class="task task3" transform-origin="938.5px 1044px" height="20" width="463" y="1034" x="707" ry="3" rx="3" id="task42"></rect><rect class="task task0" transform-origin="949.5px 1452px" height="20" width="463" y="1442" x="718" ry="3" rx="3" id="task59"></rect><rect class="task task2" transform-origin="951.5px 2628px" height="20" width="463" y="2618" x="720" ry="3" rx="3" id="task108"></rect><rect class="task task0" transform-origin="971px 1476px" height="20" width="462" y="1466" x="740" ry="3" rx="3" id="task60"></rect><rect class="task task0" transform-origin="977.5px 660px" height="20" width="463" y="650" x="746" ry="3" rx="3" id="task26"></rect><rect class="task task1" transform-origin="978.5px 2220px" height="20" width="463" y="2210" x="747" ry="3" rx="3" id="task91"></rect><rect class="task task3" transform-origin="987.5px 540px" height="20" width="463" y="530" x="756" ry="3" rx="3" id="task21"></rect><rect class="task task1" transform-origin="988.5px 252px" height="20" width="463" y="242" x="757" ry="3" rx="3" id="task9"></rect><rect class="task task0" transform-origin="994.5px 1500px" height="20" width="463" y="1490" x="763" ry="3" rx="3" id="task61"></rect><rect class="task task1" transform-origin="996.5px 2244px" height="20" width="463" y="2234" x="765" ry="3" rx="3" id="task92"></rect><rect class="task task0" transform-origin="1114px 132px" height="20" width="694" y="122" x="767" ry="3" rx="3" id="task4"></rect><rect class="task task1" transform-origin="999px 780px" height="20" width="462" y="770" x="768" ry="3" rx="3" id="task31"></rect><rect class="task task2" transform-origin="1009px 948px" height="20" width="462" y="938" x="778" ry="3" rx="3" id="task38"></rect><rect class="task task0" transform-origin="1009px 1524px" height="20" width="462" y="1514" x="778" ry="3" rx="3" id="task62"></rect><rect class="task task1" transform-origin="1016px 2268px" height="20" width="462" y="2258" x="785" ry="3" rx="3" id="task93"></rect><rect class="task task0" transform-origin="1027.5px 1548px" height="20" width="463" y="1538" x="796" ry="3" rx="3" id="task63"></rect><rect class="task task1" transform-origin="1032px 2292px" height="20" width="462" y="2282" x="801" ry="3" rx="3" id="task94"></rect><rect class="task task0" transform-origin="1041px 1572px" height="20" width="462" y="1562" x="810" ry="3" rx="3" id="task64"></rect><rect class="task task1" transform-origin="1049.5px 2316px" height="20" width="463" y="2306" x="818" ry="3" rx="3" id="task95"></rect><rect class="task task1" transform-origin="1060.5px 2340px" height="20" width="463" y="2330" x="829" ry="3" rx="3" id="task96"></rect><rect class="task task0" transform-origin="1066.5px 1596px" height="20" width="463" y="1586" x="835" ry="3" rx="3" id="task65"></rect><rect class="task task3" transform-origin="1067px 1068px" height="20" width="462" y="1058" x="836" ry="3" rx="3" id="task43"></rect><rect class="task task2" transform-origin="1068px 396px" height="20" width="462" y="386" x="837" ry="3" rx="3" id="task15"></rect><rect class="task task0" transform-origin="1068px 684px" height="20" width="462" y="674" x="837" ry="3" rx="3" id="task27"></rect><rect class="task task1" transform-origin="1075px 2364px" height="20" width="462" y="2354" x="844" ry="3" rx="3" id="task97"></rect><rect class="task task2" transform-origin="1084px 2652px" height="20" width="462" y="2642" x="853" ry="3" rx="3" id="task109"></rect><rect class="task task0" transform-origin="1087px 1620px" height="20" width="462" y="1610" x="856" ry="3" rx="3" id="task66"></rect><rect class="task task1" transform-origin="1089px 2388px" height="20" width="462" y="2378" x="858" ry="3" rx="3" id="task98"></rect><rect class="task task0" transform-origin="1111.5px 1644px" height="20" width="463" y="1634" x="880" ry="3" rx="3" id="task67"></rect><rect class="task task1" transform-origin="1113px 2412px" height="20" width="462" y="2402" x="882" ry="3" rx="3" id="task99"></rect><rect class="task task2" transform-origin="1114.5px 420px" height="20" width="463" y="410" x="883" ry="3" rx="3" id="task16"></rect><rect class="task task2" transform-origin="1117px 972px" height="20" width="462" y="962" x="886" ry="3" rx="3" id="task39"></rect><rect class="task task1" transform-origin="1119.5px 804px" height="20" width="463" y="794" x="888" ry="3" rx="3" id="task32"></rect><rect class="task task1" transform-origin="1129.5px 2436px" height="20" width="463" y="2426" x="898" ry="3" rx="3" id="task100"></rect><rect class="task task2" transform-origin="1136.5px 2676px" height="20" width="463" y="2666" x="905" ry="3" rx="3" id="task110"></rect><rect class="task task0" transform-origin="1140.5px 1668px" height="20" width="463" y="1658" x="909" ry="3" rx="3" id="task68"></rect><rect class="task task3" transform-origin="1141.5px 564px" height="20" width="463" y="554" x="910" ry="3" rx="3" id="task22"></rect><rect class="task task3" transform-origin="1145.5px 1092px" height="20" width="463" y="1082" x="914" ry="3" rx="3" id="task44"></rect><rect class="task task1" transform-origin="1151.5px 2460px" height="20" width="463" y="2450" x="920" ry="3" rx="3" id="task101"></rect><rect class="task task0" transform-origin="1160px 1692px" height="20" width="462" y="1682" x="929" ry="3" rx="3" id="task69"></rect><rect class="task task1" transform-origin="1162px 276px" height="20" width="462" y="266" x="931" ry="3" rx="3" id="task10"></rect><rect class="task task1" transform-origin="1163px 828px" height="20" width="462" y="818" x="932" ry="3" rx="3" id="task33"></rect><rect class="task task2" transform-origin="1167px 444px" height="20" width="462" y="434" x="936" ry="3" rx="3" id="task17"></rect><rect class="task task1" transform-origin="1169.5px 2484px" height="20" width="463" y="2474" x="938" ry="3" rx="3" id="task102"></rect><text class="taskText taskText0  width-15.578125" y="63.5" x="422" font-size="11" id="task1-text">3.9 </text><text class="taskText taskText0  width-21.359375" y="87.5" x="653" font-size="11" id="task2-text">3.10 </text><text class="taskText taskText1  width-31.15625" y="1719.5" x="553.5" font-size="11" id="task70-text">7.29.0 </text><text class="taskText taskText0  width-31.15625" y="1119.5" x="555.5" font-size="11" id="task45-text">0.20.0 </text><text class="taskText taskText3  width-25.390625" y="471.5" x="564.5" font-size="11" id="task18-text">3.5.0 </text><text class="taskText taskText1  width-31.15625" y="1743.5" x="570.5" font-size="11" id="task71-text">7.30.0 </text><text class="taskText taskText1  width-31.15625" y="711.5" x="575" font-size="11" id="task28-text">0.19.0 </text><text class="taskText taskText1  width-31.15625" y="159.5" x="592.5" font-size="11" id="task5-text">1.22.0 </text><text class="taskText taskText1  width-31.15625" y="1767.5" x="596" font-size="11" id="task72-text">7.31.0 </text><text class="taskText taskText1  width-25.390625" y="1863.5" x="600.5" font-size="11" id="task76-text">8.0.0 </text><text class="taskText taskText0  width-25.390625" y="591.5" x="606.5" font-size="11" id="task23-text">1.4.0 </text><text class="taskText taskText0  width-31.15625" y="1143.5" x="610.5" font-size="11" id="task46-text">0.21.0 </text><text class="taskText taskText2  width-25.390625" y="303.5" x="615.5" font-size="11" id="task11-text">1.8.0 </text><text class="taskText taskText2  width-31.15625" y="2511.5" x="617" font-size="11" id="task103-text">2.11.0 </text><text class="taskText taskText1  width-31.15625" y="1791.5" x="628.5" font-size="11" id="task73-text">7.32.0 </text><text class="taskText taskText1  width-25.390625" y="1887.5" x="628.5" font-size="11" id="task77-text">8.1.0 </text><text class="taskText taskText2  width-15.578125" y="855.5" x="630.5" font-size="11" id="task34-text">2.7 </text><text class="taskText taskText0  width-42.703125" y="1167.5" x="631.5" font-size="11" id="task47-text">2022.3.0 </text><text class="taskText taskText1  width-25.390625" y="1911.5" x="647.5" font-size="11" id="task78-text">8.2.0 </text><text class="taskText taskText2  width-15.578125" y="879.5" x="655.5" font-size="11" id="task35-text">2.8 </text><text class="taskText taskText1  width-31.15625" y="1815.5" x="668.5" font-size="11" id="task74-text">7.33.0 </text><text class="taskText taskText1  width-25.390625" y="1935.5" x="668.5" font-size="11" id="task79-text">8.3.0 </text><text class="taskText taskText3  width-25.390625" y="999.5" x="676.5" font-size="11" id="task40-text">1.1.0 </text><text class="taskText taskText1  width-31.15625" y="1839.5" x="686.5" font-size="11" id="task75-text">7.34.0 </text><text class="taskText taskText1  width-25.390625" y="1959.5" x="686.5" font-size="11" id="task80-text">8.4.0 </text><text class="taskText taskText1  width-31.15625" y="183.5" x="702.5" font-size="11" id="task6-text">1.23.0 </text><text class="taskText taskText2  width-31.15625" y="2535.5" x="703" font-size="11" id="task104-text">2.12.0 </text><text class="taskText taskText0  width-42.703125" y="1191.5" x="721.5" font-size="11" id="task48-text">2022.6.0 </text><text class="taskText taskText2  width-25.390625" y="327.5" x="726" font-size="11" id="task12-text">1.9.0 </text><text class="taskText taskText1  width-25.390625" y="1983.5" x="750.5" font-size="11" id="task81-text">8.5.0 </text><text class="taskText taskText3  width-25.390625" y="495.5" x="757" font-size="11" id="task19-text">3.6.0 </text><text class="taskText taskText0  width-25.390625" y="615.5" x="758.5" font-size="11" id="task24-text">1.5.0 </text><text class="taskText taskText2  width-31.15625" y="2559.5" x="760.5" font-size="11" id="task105-text">2.13.0 </text><text class="taskText taskText0  width-42.703125" y="1215.5" x="765" font-size="11" id="task49-text">2022.9.0 </text><text class="taskText taskText0  width-48.46875" y="1239.5" x="774" font-size="11" id="task50-text">2022.10.0 </text><text class="taskText taskText0  width-21.359375" y="111.5" x="897" font-size="11" id="task3-text">3.11 </text><text class="taskText taskText1  width-25.390625" y="2007.5" x="784.5" font-size="11" id="task82-text">8.6.0 </text><text class="taskText taskText0  width-48.46875" y="1263.5" x="788" font-size="11" id="task51-text">2022.11.0 </text><text class="taskText taskText1  width-25.390625" y="2031.5" x="803.5" font-size="11" id="task83-text">8.7.0 </text><text class="taskText taskText0  width-48.46875" y="1287.5" x="805.5" font-size="11" id="task52-text">2022.12.0 </text><text class="taskText taskText3  width-25.390625" y="1023.5" x="809.5" font-size="11" id="task41-text">1.2.0 </text><text class="taskText taskText1  width-31.15625" y="207.5" x="816" font-size="11" id="task7-text">1.24.0 </text><text class="taskText taskText2  width-31.15625" y="351.5" x="826" font-size="11" id="task13-text">1.10.0 </text><text class="taskText taskText1  width-25.390625" y="2055.5" x="826" font-size="11" id="task84-text">8.8.0 </text><text class="taskText taskText2  width-15.578125" y="903.5" x="829" font-size="11" id="task36-text">3.0 </text><text class="taskText taskText0  width-42.703125" y="1311.5" x="835.5" font-size="11" id="task53-text">2023.1.0 </text><text class="taskText taskText1  width-25.390625" y="2079.5" x="841.5" font-size="11" id="task85-text">8.9.0 </text><text class="taskText taskText0  width-42.703125" y="1335.5" x="848.5" font-size="11" id="task54-text">2023.2.0 </text><text class="taskText taskText1  width-31.15625" y="2103.5" x="850" font-size="11" id="task86-text">8.10.0 </text><text class="taskText taskText2  width-31.15625" y="2583.5" x="850" font-size="11" id="task106-text">2.14.0 </text><text class="taskText taskText3  width-25.390625" y="519.5" x="852" font-size="11" id="task20-text">3.7.0 </text><text class="taskText taskText1  width-31.15625" y="735.5" x="861.5" font-size="11" id="task29-text">0.20.0 </text><text class="taskText taskText1  width-31.15625" y="2127.5" x="861.5" font-size="11" id="task87-text">8.11.0 </text><text class="taskText taskText0  width-42.703125" y="1359.5" x="875.5" font-size="11" id="task55-text">2023.3.0 </text><text class="taskText taskText1  width-31.15625" y="2151.5" x="880.5" font-size="11" id="task88-text">8.12.0 </text><text class="taskText taskText0  width-25.390625" y="639.5" x="883" font-size="11" id="task25-text">2.0.0 </text><text class="taskText taskText2  width-15.578125" y="927.5" x="883.5" font-size="11" id="task37-text">3.1 </text><text class="taskText taskText0  width-42.703125" y="1383.5" x="890" font-size="11" id="task56-text">2023.4.0 </text><text class="taskText taskText1  width-31.15625" y="2175.5" x="899" font-size="11" id="task89-text">8.13.0 </text><text class="taskText taskText0  width-42.703125" y="1407.5" x="912" font-size="11" id="task57-text">2023.5.0 </text><text class="taskText taskText1  width-31.15625" y="759.5" x="921" font-size="11" id="task30-text">0.21.0 </text><text class="taskText taskText1  width-31.15625" y="2199.5" x="921" font-size="11" id="task90-text">8.14.0 </text><text class="taskText taskText2  width-31.15625" y="2607.5" x="928.5" font-size="11" id="task107-text">2.15.0 </text><text class="taskText taskText1  width-31.15625" y="231.5" x="930.5" font-size="11" id="task8-text">1.25.0 </text><text class="taskText taskText0  width-42.703125" y="1431.5" x="934.5" font-size="11" id="task58-text">2023.6.0 </text><text class="taskText taskText2  width-31.15625" y="375.5" x="935.5" font-size="11" id="task14-text">1.11.0 </text><text class="taskText taskText3  width-25.390625" y="1047.5" x="938.5" font-size="11" id="task42-text">1.3.0 </text><text class="taskText taskText0  width-42.703125" y="1455.5" x="949.5" font-size="11" id="task59-text">2023.7.0 </text><text class="taskText taskText2  width-31.15625" y="2631.5" x="951.5" font-size="11" id="task108-text">2.16.0 </text><text class="taskText taskText0  width-42.703125" y="1479.5" x="971" font-size="11" id="task60-text">2023.8.0 </text><text class="taskText taskText0  width-25.390625" y="663.5" x="977.5" font-size="11" id="task26-text">2.1.0 </text><text class="taskText taskText1  width-31.15625" y="2223.5" x="978.5" font-size="11" id="task91-text">8.15.0 </text><text class="taskText taskText3  width-25.390625" y="543.5" x="987.5" font-size="11" id="task21-text">3.8.0 </text><text class="taskText taskText1  width-31.15625" y="255.5" x="988.5" font-size="11" id="task9-text">1.26.0 </text><text class="taskText taskText0  width-42.703125" y="1503.5" x="994.5" font-size="11" id="task61-text">2023.9.0 </text><text class="taskText taskText1  width-31.15625" y="2247.5" x="996.5" font-size="11" id="task92-text">8.16.0 </text><text class="taskText taskText0  width-21.359375" y="135.5" x="1114" font-size="11" id="task4-text">3.12 </text><text class="taskText taskText1  width-31.15625" y="783.5" x="999" font-size="11" id="task31-text">0.22.0 </text><text class="taskText taskText2  width-15.578125" y="951.5" x="1009" font-size="11" id="task38-text">3.2 </text><text class="taskText taskText0  width-48.46875" y="1527.5" x="1009" font-size="11" id="task62-text">2023.10.0 </text><text class="taskText taskText1  width-31.15625" y="2271.5" x="1016" font-size="11" id="task93-text">8.17.0 </text><text class="taskText taskText0  width-48.46875" y="1551.5" x="1027.5" font-size="11" id="task63-text">2023.11.0 </text><text class="taskText taskText1  width-31.15625" y="2295.5" x="1032" font-size="11" id="task94-text">8.18.0 </text><text class="taskText taskText0  width-48.46875" y="1575.5" x="1041" font-size="11" id="task64-text">2023.12.0 </text><text class="taskText taskText1  width-31.15625" y="2319.5" x="1049.5" font-size="11" id="task95-text">8.19.0 </text><text class="taskText taskText1  width-31.15625" y="2343.5" x="1060.5" font-size="11" id="task96-text">8.20.0 </text><text class="taskText taskText0  width-42.703125" y="1599.5" x="1066.5" font-size="11" id="task65-text">2024.1.0 </text><text class="taskText taskText3  width-25.390625" y="1071.5" x="1067" font-size="11" id="task43-text">1.4.0 </text><text class="taskText taskText2  width-31.15625" y="399.5" x="1068" font-size="11" id="task15-text">1.12.0 </text><text class="taskText taskText0  width-25.390625" y="687.5" x="1068" font-size="11" id="task27-text">2.2.0 </text><text class="taskText taskText1  width-31.15625" y="2367.5" x="1075" font-size="11" id="task97-text">8.21.0 </text><text class="taskText taskText2  width-31.15625" y="2655.5" x="1084" font-size="11" id="task109-text">2.17.0 </text><text class="taskText taskText0  width-42.703125" y="1623.5" x="1087" font-size="11" id="task66-text">2024.2.0 </text><text class="taskText taskText1  width-31.15625" y="2391.5" x="1089" font-size="11" id="task98-text">8.22.0 </text><text class="taskText taskText0  width-42.703125" y="1647.5" x="1111.5" font-size="11" id="task67-text">2024.3.0 </text><text class="taskText taskText1  width-31.15625" y="2415.5" x="1113" font-size="11" id="task99-text">8.23.0 </text><text class="taskText taskText2  width-31.15625" y="423.5" x="1114.5" font-size="11" id="task16-text">1.13.0 </text><text class="taskText taskText2  width-15.578125" y="975.5" x="1117" font-size="11" id="task39-text">3.3 </text><text class="taskText taskText1  width-31.15625" y="807.5" x="1119.5" font-size="11" id="task32-text">0.23.0 </text><text class="taskText taskText1  width-31.15625" y="2439.5" x="1129.5" font-size="11" id="task100-text">8.24.0 </text><text class="taskText taskText2  width-31.15625" y="2679.5" x="1136.5" font-size="11" id="task110-text">2.18.0 </text><text class="taskText taskText0  width-42.703125" y="1671.5" x="1140.5" font-size="11" id="task68-text">2024.5.0 </text><text class="taskText taskText3  width-25.390625" y="567.5" x="1141.5" font-size="11" id="task22-text">3.9.0 </text><text class="taskText taskText3  width-25.390625" y="1095.5" x="1145.5" font-size="11" id="task44-text">1.5.0 </text><text class="taskText taskText1  width-31.15625" y="2463.5" x="1151.5" font-size="11" id="task101-text">8.25.0 </text><text class="taskText taskText0  width-42.703125" y="1695.5" x="1160" font-size="11" id="task69-text">2024.6.0 </text><text class="taskText taskText1  width-25.390625" y="279.5" x="1162" font-size="11" id="task10-text">2.0.0 </text><text class="taskText taskText1  width-31.15625" y="831.5" x="1163" font-size="11" id="task33-text">0.24.0 </text><text class="taskText taskText2  width-31.15625" y="447.5" x="1167" font-size="11" id="task17-text">1.14.0 </text><text class="taskText taskText1  width-31.15625" y="2487.5" x="1169.5" font-size="11" id="task102-text">8.26.0 </text></g><g><text class="sectionTitle sectionTitle0" font-size="11" y="98" x="10" dy="0em"><tspan x="10" alignment-baseline="central">python</tspan></text><text class="sectionTitle sectionTitle1" font-size="11" y="218" x="10" dy="0em"><tspan x="10" alignment-baseline="central">numpy</tspan></text><text class="sectionTitle sectionTitle2" font-size="11" y="374" x="10" dy="0em"><tspan x="10" alignment-baseline="central">scipy</tspan></text><text class="sectionTitle sectionTitle3" font-size="11" y="518" x="10" dy="0em"><tspan x="10" alignment-baseline="central">matplotlib</tspan></text><text class="sectionTitle sectionTitle0" font-size="11" y="638" x="10" dy="0em"><tspan x="10" alignment-baseline="central">pandas</tspan></text><text class="sectionTitle sectionTitle1" font-size="11" y="770" x="10" dy="0em"><tspan x="10" alignment-baseline="central">scikit-image</tspan></text><text class="sectionTitle sectionTitle2" font-size="11" y="914" x="10" dy="0em"><tspan x="10" alignment-baseline="central">networkx</tspan></text><text class="sectionTitle sectionTitle3" font-size="11" y="1046" x="10" dy="0em"><tspan x="10" alignment-baseline="central">scikit-learn</tspan></text><text class="sectionTitle sectionTitle0" font-size="11" y="1406" x="10" dy="0em"><tspan x="10" alignment-baseline="central">xarray</tspan></text><text class="sectionTitle sectionTitle1" font-size="11" y="2102" x="10" dy="0em"><tspan x="10" alignment-baseline="central">ipython</tspan></text><text class="sectionTitle sectionTitle2" font-size="11" y="2594" x="10" dy="0em"><tspan x="10" alignment-baseline="central">zarr</tspan></text></g><g class="today"><line class="today" y2="2715" y1="25" x2="941" x1="941"></line></g><text class="titleText" y="25" x="768">Support Window</text></svg>