<?xml version="1.0" encoding="UTF-8"?>
<?xml-stylesheet href="https://cdnjs.cloudflare.com/ajax/libs/font-awesome/6.7.2/css/all.min.css" type="text/css"?>
<svg id="graph-27" width="100%" xmlns="http://www.w3.org/2000/svg" style="overflow: hidden; max-width: 100%; touch-action: none; -webkit-user-select: none; -webkit-user-drag: none; background-color: rgb(255, 255, 255);" role="graphics-document document" aria-roledescription="gantt" height="100%" xmlns:xlink="http://www.w3.org/1999/xlink" xmlns:ev="http://www.w3.org/2001/xml-events"><g id="viewport-20251028174026025" class="svg-pan-zoom_viewport" transform="matrix(0.2741258803781109,0,0,0.2741258803781109,429.97412638412976,56.000001277242596)" style="transform: matrix(0.274126, 0, 0, 0.274126, 429.974126, 56.000001);"><style>#graph-27{font-family:"trebuchet ms",verdana,arial,sans-serif;font-size:16px;fill:#333;}@keyframes edge-animation-frame{from{stroke-dashoffset:0;}}@keyframes dash{to{stroke-dashoffset:0;}}#graph-27 .edge-animation-slow{stroke-dasharray:9,5!important;stroke-dashoffset:900;animation:dash 50s linear infinite;stroke-linecap:round;}#graph-27 .edge-animation-fast{stroke-dasharray:9,5!important;stroke-dashoffset:900;animation:dash 20s linear infinite;stroke-linecap:round;}#graph-27 .error-icon{fill:#552222;}#graph-27 .error-text{fill:#552222;stroke:#552222;}#graph-27 .edge-thickness-normal{stroke-width:1px;}#graph-27 .edge-thickness-thick{stroke-width:3.5px;}#graph-27 .edge-pattern-solid{stroke-dasharray:0;}#graph-27 .edge-thickness-invisible{stroke-width:0;fill:none;}#graph-27 .edge-pattern-dashed{stroke-dasharray:3;}#graph-27 .edge-pattern-dotted{stroke-dasharray:2;}#graph-27 .marker{fill:#333333;stroke:#333333;}#graph-27 .marker.cross{stroke:#333333;}#graph-27 svg{font-family:"trebuchet ms",verdana,arial,sans-serif;font-size:16px;}#graph-27 p{margin:0;}#graph-27 .mermaid-main-font{font-family:"trebuchet ms",verdana,arial,sans-serif;}#graph-27 .exclude-range{fill:#eeeeee;}#graph-27 .section{stroke:none;opacity:0.2;}#graph-27 .section0{fill:rgba(102, 102, 255, 0.49);}#graph-27 .section2{fill:#fff400;}#graph-27 .section1,#graph-27 .section3{fill:white;opacity:0.2;}#graph-27 .sectionTitle0{fill:#333;}#graph-27 .sectionTitle1{fill:#333;}#graph-27 .sectionTitle2{fill:#333;}#graph-27 .sectionTitle3{fill:#333;}#graph-27 .sectionTitle{text-anchor:start;font-family:"trebuchet ms",verdana,arial,sans-serif;}#graph-27 .grid .tick{stroke:lightgrey;opacity:0.8;shape-rendering:crispEdges;}#graph-27 .grid .tick text{font-family:"trebuchet ms",verdana,arial,sans-serif;fill:#333;}#graph-27 .grid path{stroke-width:0;}#graph-27 .today{fill:none;stroke:red;stroke-width:2px;}#graph-27 .task{stroke-width:2;}#graph-27 .taskText{text-anchor:middle;font-family:"trebuchet ms",verdana,arial,sans-serif;}#graph-27 .taskTextOutsideRight{fill:black;text-anchor:start;font-family:"trebuchet ms",verdana,arial,sans-serif;}#graph-27 .taskTextOutsideLeft{fill:black;text-anchor:end;}#graph-27 .task.clickable{cursor:pointer;}#graph-27 .taskText.clickable{cursor:pointer;fill:#003163!important;font-weight:bold;}#graph-27 .taskTextOutsideLeft.clickable{cursor:pointer;fill:#003163!important;font-weight:bold;}#graph-27 .taskTextOutsideRight.clickable{cursor:pointer;fill:#003163!important;font-weight:bold;}#graph-27 .taskText0,#graph-27 .taskText1,#graph-27 .taskText2,#graph-27 .taskText3{fill:white;}#graph-27 .task0,#graph-27 .task1,#graph-27 .task2,#graph-27 .task3{fill:#8a90dd;stroke:#534fbc;}#graph-27 .taskTextOutside0,#graph-27 .taskTextOutside2{fill:black;}#graph-27 .taskTextOutside1,#graph-27 .taskTextOutside3{fill:black;}#graph-27 .active0,#graph-27 .active1,#graph-27 .active2,#graph-27 .active3{fill:#bfc7ff;stroke:#534fbc;}#graph-27 .activeText0,#graph-27 .activeText1,#graph-27 .activeText2,#graph-27 .activeText3{fill:black!important;}#graph-27 .done0,#graph-27 .done1,#graph-27 .done2,#graph-27 .done3{stroke:grey;fill:lightgrey;stroke-width:2;}#graph-27 .doneText0,#graph-27 .doneText1,#graph-27 .doneText2,#graph-27 .doneText3{fill:black!important;}#graph-27 .crit0,#graph-27 .crit1,#graph-27 .crit2,#graph-27 .crit3{stroke:#ff8888;fill:red;stroke-width:2;}#graph-27 .activeCrit0,#graph-27 .activeCrit1,#graph-27 .activeCrit2,#graph-27 .activeCrit3{stroke:#ff8888;fill:#bfc7ff;stroke-width:2;}#graph-27 .doneCrit0,#graph-27 .doneCrit1,#graph-27 .doneCrit2,#graph-27 .doneCrit3{stroke:#ff8888;fill:lightgrey;stroke-width:2;cursor:pointer;shape-rendering:crispEdges;}#graph-27 .milestone{transform:rotate(45deg) scale(0.8,0.8);}#graph-27 .milestoneText{font-style:italic;}#graph-27 .doneCritText0,#graph-27 .doneCritText1,#graph-27 .doneCritText2,#graph-27 .doneCritText3{fill:black!important;}#graph-27 .vert{stroke:navy;}#graph-27 .vertText{font-size:15px;text-anchor:middle;fill:navy!important;}#graph-27 .activeCritText0,#graph-27 .activeCritText1,#graph-27 .activeCritText2,#graph-27 .activeCritText3{fill:black!important;}#graph-27 .titleText{text-anchor:middle;font-size:18px;fill:#333;font-family:"trebuchet ms",verdana,arial,sans-serif;}#graph-27 :root{--mermaid-font-family:"trebuchet ms",verdana,arial,sans-serif;}</style><g></g><g class="grid" transform="translate(75, 2810)" fill="none" font-size="10" font-family="sans-serif" text-anchor="middle"><path class="domain" stroke="currentColor" d="M0,-2775V0H992V-2775"></path><g class="tick" opacity="1" transform="translate(32,0)"><line stroke="currentColor" y2="-2775"></line><text fill="#000" y="3" dy="1em" stroke="none" font-size="10" style="text-anchor: middle;">01 / 2023</text></g><g class="tick" opacity="1" transform="translate(198,0)"><line stroke="currentColor" y2="-2775"></line><text fill="#000" y="3" dy="1em" stroke="none" font-size="10" style="text-anchor: middle;">01 / 2024</text></g><g class="tick" opacity="1" transform="translate(365,0)"><line stroke="currentColor" y2="-2775"></line><text fill="#000" y="3" dy="1em" stroke="none" font-size="10" style="text-anchor: middle;">01 / 2025</text></g><g class="tick" opacity="1" transform="translate(532,0)"><line stroke="currentColor" y2="-2775"></line><text fill="#000" y="3" dy="1em" stroke="none" font-size="10" style="text-anchor: middle;">01 / 2026</text></g><g class="tick" opacity="1" transform="translate(698,0)"><line stroke="currentColor" y2="-2775"></line><text fill="#000" y="3" dy="1em" stroke="none" font-size="10" style="text-anchor: middle;">01 / 2027</text></g><g class="tick" opacity="1" transform="translate(865,0)"><line stroke="currentColor" y2="-2775"></line><text fill="#000" y="3" dy="1em" stroke="none" font-size="10" style="text-anchor: middle;">01 / 2028</text></g></g><g><rect x="0" y="48" width="1104.5" height="24" class="section section0"></rect><rect x="0" y="288" width="1104.5" height="24" class="section section2"></rect><rect x="0" y="1752" width="1104.5" height="24" class="section section1"></rect><rect x="0" y="792" width="1104.5" height="24" class="section section2"></rect><rect x="0" y="1056" width="1104.5" height="24" class="section section0"></rect><rect x="0" y="1776" width="1104.5" height="24" class="section section1"></rect><rect x="0" y="1080" width="1104.5" height="24" class="section section0"></rect><rect x="0" y="1800" width="1104.5" height="24" class="section section1"></rect><rect x="0" y="2640" width="1104.5" height="24" class="section section2"></rect><rect x="0" y="456" width="1104.5" height="24" class="section section3"></rect><rect x="0" y="648" width="1104.5" height="24" class="section section1"></rect><rect x="0" y="1824" width="1104.5" height="24" class="section section1"></rect><rect x="0" y="1104" width="1104.5" height="24" class="section section0"></rect><rect x="0" y="1848" width="1104.5" height="24" class="section section1"></rect><rect x="0" y="552" width="1104.5" height="24" class="section section0"></rect><rect x="0" y="816" width="1104.5" height="24" class="section section2"></rect><rect x="0" y="1128" width="1104.5" height="24" class="section section0"></rect><rect x="0" y="1872" width="1104.5" height="24" class="section section1"></rect><rect x="0" y="1152" width="1104.5" height="24" class="section section0"></rect><rect x="0" y="672" width="1104.5" height="24" class="section section1"></rect><rect x="0" y="1896" width="1104.5" height="24" class="section section1"></rect><rect x="0" y="2664" width="1104.5" height="24" class="section section2"></rect><rect x="0" y="144" width="1104.5" height="24" class="section section1"></rect><rect x="0" y="1176" width="1104.5" height="24" class="section section0"></rect><rect x="0" y="312" width="1104.5" height="24" class="section section2"></rect><rect x="0" y="936" width="1104.5" height="24" class="section section3"></rect><rect x="0" y="1200" width="1104.5" height="24" class="section section0"></rect><rect x="0" y="2688" width="1104.5" height="24" class="section section2"></rect><rect x="0" y="1224" width="1104.5" height="24" class="section section0"></rect><rect x="0" y="576" width="1104.5" height="24" class="section section0"></rect><rect x="0" y="1920" width="1104.5" height="24" class="section section1"></rect><rect x="0" y="480" width="1104.5" height="24" class="section section3"></rect><rect x="0" y="168" width="1104.5" height="24" class="section section1"></rect><rect x="0" y="1248" width="1104.5" height="24" class="section section0"></rect><rect x="0" y="1944" width="1104.5" height="24" class="section section1"></rect><rect x="0" y="72" width="1104.5" height="24" class="section section0"></rect><rect x="0" y="696" width="1104.5" height="24" class="section section1"></rect><rect x="0" y="840" width="1104.5" height="24" class="section section2"></rect><rect x="0" y="1272" width="1104.5" height="24" class="section section0"></rect><rect x="0" y="1968" width="1104.5" height="24" class="section section1"></rect><rect x="0" y="1296" width="1104.5" height="24" class="section section0"></rect><rect x="0" y="1992" width="1104.5" height="24" class="section section1"></rect><rect x="0" y="1320" width="1104.5" height="24" class="section section0"></rect><rect x="0" y="2016" width="1104.5" height="24" class="section section1"></rect><rect x="0" y="2040" width="1104.5" height="24" class="section section1"></rect><rect x="0" y="1344" width="1104.5" height="24" class="section section0"></rect><rect x="0" y="960" width="1104.5" height="24" class="section section3"></rect><rect x="0" y="336" width="1104.5" height="24" class="section section2"></rect><rect x="0" y="600" width="1104.5" height="24" class="section section0"></rect><rect x="0" y="2064" width="1104.5" height="24" class="section section1"></rect><rect x="0" y="2712" width="1104.5" height="24" class="section section2"></rect><rect x="0" y="1368" width="1104.5" height="24" class="section section0"></rect><rect x="0" y="2088" width="1104.5" height="24" class="section section1"></rect><rect x="0" y="1392" width="1104.5" height="24" class="section section0"></rect><rect x="0" y="2112" width="1104.5" height="24" class="section section1"></rect><rect x="0" y="360" width="1104.5" height="24" class="section section2"></rect><rect x="0" y="864" width="1104.5" height="24" class="section section2"></rect><rect x="0" y="720" width="1104.5" height="24" class="section section1"></rect><rect x="0" y="2136" width="1104.5" height="24" class="section section1"></rect><rect x="0" y="2736" width="1104.5" height="24" class="section section2"></rect><rect x="0" y="1416" width="1104.5" height="24" class="section section0"></rect><rect x="0" y="504" width="1104.5" height="24" class="section section3"></rect><rect x="0" y="984" width="1104.5" height="24" class="section section3"></rect><rect x="0" y="2160" width="1104.5" height="24" class="section section1"></rect><rect x="0" y="1440" width="1104.5" height="24" class="section section0"></rect><rect x="0" y="192" width="1104.5" height="24" class="section section1"></rect><rect x="0" y="744" width="1104.5" height="24" class="section section1"></rect><rect x="0" y="384" width="1104.5" height="24" class="section section2"></rect><rect x="0" y="2184" width="1104.5" height="24" class="section section1"></rect><rect x="0" y="1464" width="1104.5" height="24" class="section section0"></rect><rect x="0" y="216" width="1104.5" height="24" class="section section1"></rect><rect x="0" y="2208" width="1104.5" height="24" class="section section1"></rect><rect x="0" y="1488" width="1104.5" height="24" class="section section0"></rect><rect x="0" y="2232" width="1104.5" height="24" class="section section1"></rect><rect x="0" y="96" width="1104.5" height="24" class="section section0"></rect><rect x="0" y="888" width="1104.5" height="24" class="section section2"></rect><rect x="0" y="1512" width="1104.5" height="24" class="section section0"></rect><rect x="0" y="2256" width="1104.5" height="24" class="section section1"></rect><rect x="0" y="1536" width="1104.5" height="24" class="section section0"></rect><rect x="0" y="2280" width="1104.5" height="24" class="section section1"></rect><rect x="0" y="240" width="1104.5" height="24" class="section section1"></rect><rect x="0" y="1008" width="1104.5" height="24" class="section section3"></rect><rect x="0" y="768" width="1104.5" height="24" class="section section1"></rect><rect x="0" y="528" width="1104.5" height="24" class="section section3"></rect><rect x="0" y="2304" width="1104.5" height="24" class="section section1"></rect><rect x="0" y="408" width="1104.5" height="24" class="section section2"></rect><rect x="0" y="1560" width="1104.5" height="24" class="section section0"></rect><rect x="0" y="2760" width="1104.5" height="24" class="section section2"></rect><rect x="0" y="2328" width="1104.5" height="24" class="section section1"></rect><rect x="0" y="2352" width="1104.5" height="24" class="section section1"></rect><rect x="0" y="2472" width="1104.5" height="24" class="section section1"></rect><rect x="0" y="2376" width="1104.5" height="24" class="section section1"></rect><rect x="0" y="1584" width="1104.5" height="24" class="section section0"></rect><rect x="0" y="2400" width="1104.5" height="24" class="section section1"></rect><rect x="0" y="2496" width="1104.5" height="24" class="section section1"></rect><rect x="0" y="2424" width="1104.5" height="24" class="section section1"></rect><rect x="0" y="2520" width="1104.5" height="24" class="section section1"></rect><rect x="0" y="1608" width="1104.5" height="24" class="section section0"></rect><rect x="0" y="912" width="1104.5" height="24" class="section section2"></rect><rect x="0" y="2448" width="1104.5" height="24" class="section section1"></rect><rect x="0" y="2544" width="1104.5" height="24" class="section section1"></rect><rect x="0" y="624" width="1104.5" height="24" class="section section0"></rect><rect x="0" y="1032" width="1104.5" height="24" class="section section3"></rect><rect x="0" y="264" width="1104.5" height="24" class="section section1"></rect><rect x="0" y="1632" width="1104.5" height="24" class="section section0"></rect><rect x="0" y="432" width="1104.5" height="24" class="section section2"></rect><rect x="0" y="2568" width="1104.5" height="24" class="section section1"></rect><rect x="0" y="1656" width="1104.5" height="24" class="section section0"></rect><rect x="0" y="2784" width="1104.5" height="24" class="section section2"></rect><rect x="0" y="1680" width="1104.5" height="24" class="section section0"></rect><rect x="0" y="2592" width="1104.5" height="24" class="section section1"></rect><rect x="0" y="1704" width="1104.5" height="24" class="section section0"></rect><rect x="0" y="2616" width="1104.5" height="24" class="section section1"></rect><rect x="0" y="1728" width="1104.5" height="24" class="section section0"></rect><rect x="0" y="120" width="1104.5" height="24" class="section section0"></rect></g><g><rect id="task1" rx="3" ry="3" x="75" y="50" width="500" height="20" transform-origin="325px 60px" class="task task0"></rect><rect id="task11" rx="3" ry="3" x="107" y="290" width="334" height="20" transform-origin="274px 300px" class="task task2"></rect><rect id="task72" rx="3" ry="3" x="107" y="1754" width="334" height="20" transform-origin="274px 1764px" class="task task1"></rect><rect id="task32" rx="3" ry="3" x="110" y="794" width="333" height="20" transform-origin="276.5px 804px" class="task task2"></rect><rect id="task43" rx="3" ry="3" x="114" y="1058" width="333" height="20" transform-origin="280.5px 1068px" class="task task0"></rect><rect id="task73" rx="3" ry="3" x="118" y="1778" width="333" height="20" transform-origin="284.5px 1788px" class="task task1"></rect><rect id="task44" rx="3" ry="3" x="123" y="1082" width="333" height="20" transform-origin="289.5px 1092px" class="task task0"></rect><rect id="task74" rx="3" ry="3" x="125" y="1802" width="333" height="20" transform-origin="291.5px 1812px" class="task task1"></rect><rect id="task109" rx="3" ry="3" x="125" y="2642" width="333" height="20" transform-origin="291.5px 2652px" class="task task2"></rect><rect id="task18" rx="3" ry="3" x="126" y="458" width="333" height="20" transform-origin="292.5px 468px" class="task task3"></rect><rect id="task26" rx="3" ry="3" x="133" y="650" width="333" height="20" transform-origin="299.5px 660px" class="task task1"></rect><rect id="task75" rx="3" ry="3" x="133" y="1826" width="333" height="20" transform-origin="299.5px 1836px" class="task task1"></rect><rect id="task45" rx="3" ry="3" x="143" y="1106" width="333" height="20" transform-origin="309.5px 1116px" class="task task0"></rect><rect id="task76" rx="3" ry="3" x="147" y="1850" width="333" height="20" transform-origin="313.5px 1860px" class="task task1"></rect><rect id="task22" rx="3" ry="3" x="148" y="554" width="334" height="20" transform-origin="315px 564px" class="task task0"></rect><rect id="task33" rx="3" ry="3" x="149" y="818" width="333" height="20" transform-origin="315.5px 828px" class="task task2"></rect><rect id="task46" rx="3" ry="3" x="153" y="1130" width="334" height="20" transform-origin="320px 1140px" class="task task0"></rect><rect id="task77" rx="3" ry="3" x="160" y="1874" width="333" height="20" transform-origin="326.5px 1884px" class="task task1"></rect><rect id="task47" rx="3" ry="3" x="169" y="1154" width="334" height="20" transform-origin="336px 1164px" class="task task0"></rect><rect id="task27" rx="3" ry="3" x="176" y="674" width="333" height="20" transform-origin="342.5px 684px" class="task task1"></rect><rect id="task78" rx="3" ry="3" x="176" y="1898" width="333" height="20" transform-origin="342.5px 1908px" class="task task1"></rect><rect id="task110" rx="3" ry="3" x="181" y="2666" width="333" height="20" transform-origin="347.5px 2676px" class="task task2"></rect><rect id="task5" rx="3" ry="3" x="183" y="146" width="333" height="20" transform-origin="349.5px 156px" class="task task1"></rect><rect id="task48" rx="3" ry="3" x="185" y="1178" width="334" height="20" transform-origin="352px 1188px" class="task task0"></rect><rect id="task12" rx="3" ry="3" x="186" y="314" width="333" height="20" transform-origin="352.5px 324px" class="task task2"></rect><rect id="task38" rx="3" ry="3" x="189" y="938" width="333" height="20" transform-origin="355.5px 948px" class="task task3"></rect><rect id="task49" rx="3" ry="3" x="196" y="1202" width="333" height="20" transform-origin="362.5px 1212px" class="task task0"></rect><rect id="task111" rx="3" ry="3" x="198" y="2690" width="333" height="20" transform-origin="364.5px 2700px" class="task task2"></rect><rect id="task50" rx="3" ry="3" x="212" y="1226" width="333" height="20" transform-origin="378.5px 1236px" class="task task0"></rect><rect id="task23" rx="3" ry="3" x="216" y="578" width="334" height="20" transform-origin="383px 588px" class="task task0"></rect><rect id="task79" rx="3" ry="3" x="217" y="1922" width="333" height="20" transform-origin="383.5px 1932px" class="task task1"></rect><rect id="task19" rx="3" ry="3" x="224" y="482" width="333" height="20" transform-origin="390.5px 492px" class="task task3"></rect><rect id="task6" rx="3" ry="3" x="224" y="170" width="333" height="20" transform-origin="390.5px 180px" class="task task1"></rect><rect id="task51" rx="3" ry="3" x="229" y="1250" width="333" height="20" transform-origin="395.5px 1260px" class="task task0"></rect><rect id="task80" rx="3" ry="3" x="230" y="1946" width="333" height="20" transform-origin="396.5px 1956px" class="task task1"></rect><rect id="task2" rx="3" ry="3" x="232" y="74" width="499" height="20" transform-origin="481.5px 84px" class="task task0"></rect><rect id="task28" rx="3" ry="3" x="232" y="698" width="333" height="20" transform-origin="398.5px 708px" class="task task1"></rect><rect id="task34" rx="3" ry="3" x="239" y="842" width="333" height="20" transform-origin="405.5px 852px" class="task task2"></rect><rect id="task52" rx="3" ry="3" x="239" y="1274" width="333" height="20" transform-origin="405.5px 1284px" class="task task0"></rect><rect id="task81" rx="3" ry="3" x="244" y="1970" width="333" height="20" transform-origin="410.5px 1980px" class="task task1"></rect><rect id="task53" rx="3" ry="3" x="253" y="1298" width="333" height="20" transform-origin="419.5px 1308px" class="task task0"></rect><rect id="task82" rx="3" ry="3" x="256" y="1994" width="333" height="20" transform-origin="422.5px 2004px" class="task task1"></rect><rect id="task54" rx="3" ry="3" x="262" y="1322" width="333" height="20" transform-origin="428.5px 1332px" class="task task0"></rect><rect id="task83" rx="3" ry="3" x="268" y="2018" width="334" height="20" transform-origin="435px 2028px" class="task task1"></rect><rect id="task84" rx="3" ry="3" x="276" y="2042" width="333" height="20" transform-origin="442.5px 2052px" class="task task1"></rect><rect id="task55" rx="3" ry="3" x="280" y="1346" width="333" height="20" transform-origin="446.5px 1356px" class="task task0"></rect><rect id="task39" rx="3" ry="3" x="281" y="962" width="333" height="20" transform-origin="447.5px 972px" class="task task3"></rect><rect id="task13" rx="3" ry="3" x="282" y="338" width="333" height="20" transform-origin="448.5px 348px" class="task task2"></rect><rect id="task24" rx="3" ry="3" x="282" y="602" width="333" height="20" transform-origin="448.5px 612px" class="task task0"></rect><rect id="task85" rx="3" ry="3" x="287" y="2066" width="333" height="20" transform-origin="453.5px 2076px" class="task task1"></rect><rect id="task112" rx="3" ry="3" x="293" y="2714" width="333" height="20" transform-origin="459.5px 2724px" class="task task2"></rect><rect id="task56" rx="3" ry="3" x="295" y="1370" width="334" height="20" transform-origin="462px 1380px" class="task task0"></rect><rect id="task86" rx="3" ry="3" x="297" y="2090" width="333" height="20" transform-origin="463.5px 2100px" class="task task1"></rect><rect id="task57" rx="3" ry="3" x="313" y="1394" width="333" height="20" transform-origin="479.5px 1404px" class="task task0"></rect><rect id="task87" rx="3" ry="3" x="314" y="2114" width="333" height="20" transform-origin="480.5px 2124px" class="task task1"></rect><rect id="task14" rx="3" ry="3" x="315" y="362" width="333" height="20" transform-origin="481.5px 372px" class="task task2"></rect><rect id="task35" rx="3" ry="3" x="317" y="866" width="333" height="20" transform-origin="483.5px 876px" class="task task2"></rect><rect id="task29" rx="3" ry="3" x="319" y="722" width="333" height="20" transform-origin="485.5px 732px" class="task task1"></rect><rect id="task88" rx="3" ry="3" x="326" y="2138" width="333" height="20" transform-origin="492.5px 2148px" class="task task1"></rect><rect id="task113" rx="3" ry="3" x="331" y="2738" width="333" height="20" transform-origin="497.5px 2748px" class="task task2"></rect><rect id="task58" rx="3" ry="3" x="334" y="1418" width="333" height="20" transform-origin="500.5px 1428px" class="task task0"></rect><rect id="task20" rx="3" ry="3" x="335" y="506" width="333" height="20" transform-origin="501.5px 516px" class="task task3"></rect><rect id="task40" rx="3" ry="3" x="337" y="986" width="333" height="20" transform-origin="503.5px 996px" class="task task3"></rect><rect id="task89" rx="3" ry="3" x="342" y="2162" width="333" height="20" transform-origin="508.5px 2172px" class="task task1"></rect><rect id="task59" rx="3" ry="3" x="348" y="1442" width="333" height="20" transform-origin="514.5px 1452px" class="task task0"></rect><rect id="task7" rx="3" ry="3" x="349" y="194" width="333" height="20" transform-origin="515.5px 204px" class="task task1"></rect><rect id="task30" rx="3" ry="3" x="350" y="746" width="333" height="20" transform-origin="516.5px 756px" class="task task1"></rect><rect id="task15" rx="3" ry="3" x="353" y="386" width="333" height="20" transform-origin="519.5px 396px" class="task task2"></rect><rect id="task90" rx="3" ry="3" x="355" y="2186" width="333" height="20" transform-origin="521.5px 2196px" class="task task1"></rect><rect id="task60" rx="3" ry="3" x="369" y="1466" width="333" height="20" transform-origin="535.5px 1476px" class="task task0"></rect><rect id="task8" rx="3" ry="3" x="378" y="218" width="333" height="20" transform-origin="544.5px 228px" class="task task1"></rect><rect id="task91" rx="3" ry="3" x="383" y="2210" width="334" height="20" transform-origin="550px 2220px" class="task task1"></rect><rect id="task61" rx="3" ry="3" x="389" y="1490" width="333" height="20" transform-origin="555.5px 1500px" class="task task0"></rect><rect id="task92" rx="3" ry="3" x="399" y="2234" width="333" height="20" transform-origin="565.5px 2244px" class="task task1"></rect><rect id="task3" rx="3" ry="3" x="401" y="98" width="499" height="20" transform-origin="650.5px 108px" class="task task0"></rect><rect id="task36" rx="3" ry="3" x="402" y="890" width="333" height="20" transform-origin="568.5px 900px" class="task task2"></rect><rect id="task62" rx="3" ry="3" x="409" y="1514" width="333" height="20" transform-origin="575.5px 1524px" class="task task0"></rect><rect id="task93" rx="3" ry="3" x="409" y="2258" width="333" height="20" transform-origin="575.5px 2268px" class="task task1"></rect><rect id="task63" rx="3" ry="3" x="422" y="1538" width="333" height="20" transform-origin="588.5px 1548px" class="task task0"></rect><rect id="task94" rx="3" ry="3" x="425" y="2282" width="333" height="20" transform-origin="591.5px 2292px" class="task task1"></rect><rect id="task9" rx="3" ry="3" x="429" y="242" width="333" height="20" transform-origin="595.5px 252px" class="task task1"></rect><rect id="task41" rx="3" ry="3" x="430" y="1010" width="333" height="20" transform-origin="596.5px 1020px" class="task task3"></rect><rect id="task31" rx="3" ry="3" x="431" y="770" width="333" height="20" transform-origin="597.5px 780px" class="task task1"></rect><rect id="task21" rx="3" ry="3" x="432" y="530" width="333" height="20" transform-origin="598.5px 540px" class="task task3"></rect><rect id="task95" rx="3" ry="3" x="435" y="2306" width="333" height="20" transform-origin="601.5px 2316px" class="task task1"></rect><rect id="task16" rx="3" ry="3" x="441" y="410" width="333" height="20" transform-origin="607.5px 420px" class="task task2"></rect><rect id="task64" rx="3" ry="3" x="441" y="1562" width="333" height="20" transform-origin="607.5px 1572px" class="task task0"></rect><rect id="task114" rx="3" ry="3" x="444" y="2762" width="333" height="20" transform-origin="610.5px 2772px" class="task task2"></rect><rect id="task96" rx="3" ry="3" x="454" y="2330" width="333" height="20" transform-origin="620.5px 2340px" class="task task1"></rect><rect id="task97" rx="3" ry="3" x="467" y="2354" width="333" height="20" transform-origin="633.5px 2364px" class="task task1"></rect><rect id="task102" rx="3" ry="3" x="467" y="2474" width="333" height="20" transform-origin="633.5px 2484px" class="task task1"></rect><rect id="task98" rx="3" ry="3" x="470" y="2378" width="333" height="20" transform-origin="636.5px 2388px" class="task task1"></rect><rect id="task65" rx="3" ry="3" x="476" y="1586" width="333" height="20" transform-origin="642.5px 1596px" class="task task0"></rect><rect id="task99" rx="3" ry="3" x="484" y="2402" width="333" height="20" transform-origin="650.5px 2412px" class="task task1"></rect><rect id="task103" rx="3" ry="3" x="484" y="2498" width="333" height="20" transform-origin="650.5px 2508px" class="task task1"></rect><rect id="task100" rx="3" ry="3" x="492" y="2426" width="333" height="20" transform-origin="658.5px 2436px" class="task task1"></rect><rect id="task104" rx="3" ry="3" x="492" y="2522" width="333" height="20" transform-origin="658.5px 2532px" class="task task1"></rect><rect id="task66" rx="3" ry="3" x="494" y="1610" width="333" height="20" transform-origin="660.5px 1620px" class="task task0"></rect><rect id="task37" rx="3" ry="3" x="508" y="914" width="333" height="20" transform-origin="674.5px 924px" class="task task2"></rect><rect id="task101" rx="3" ry="3" x="508" y="2450" width="334" height="20" transform-origin="675px 2460px" class="task task1"></rect><rect id="task105" rx="3" ry="3" x="508" y="2546" width="334" height="20" transform-origin="675px 2556px" class="task task1"></rect><rect id="task25" rx="3" ry="3" x="511" y="626" width="333" height="20" transform-origin="677.5px 636px" class="task task0"></rect><rect id="task42" rx="3" ry="3" x="511" y="1034" width="333" height="20" transform-origin="677.5px 1044px" class="task task3"></rect><rect id="task10" rx="3" ry="3" x="512" y="266" width="333" height="20" transform-origin="678.5px 276px" class="task task1"></rect><rect id="task67" rx="3" ry="3" x="513" y="1634" width="333" height="20" transform-origin="679.5px 1644px" class="task task0"></rect><rect id="task17" rx="3" ry="3" x="519" y="434" width="333" height="20" transform-origin="685.5px 444px" class="task task2"></rect><rect id="task106" rx="3" ry="3" x="523" y="2570" width="333" height="20" transform-origin="689.5px 2580px" class="task task1"></rect><rect id="task68" rx="3" ry="3" x="524" y="1658" width="333" height="20" transform-origin="690.5px 1668px" class="task task0"></rect><rect id="task115" rx="3" ry="3" x="529" y="2786" width="333" height="20" transform-origin="695.5px 2796px" class="task task2"></rect><rect id="task69" rx="3" ry="3" x="543" y="1682" width="333" height="20" transform-origin="709.5px 1692px" class="task task0"></rect><rect id="task107" rx="3" ry="3" x="550" y="2594" width="333" height="20" transform-origin="716.5px 2604px" class="task task1"></rect><rect id="task70" rx="3" ry="3" x="552" y="1706" width="333" height="20" transform-origin="718.5px 1716px" class="task task0"></rect><rect id="task108" rx="3" ry="3" x="564" y="2618" width="333" height="20" transform-origin="730.5px 2628px" class="task task1"></rect><rect id="task71" rx="3" ry="3" x="567" y="1730" width="333" height="20" transform-origin="733.5px 1740px" class="task task0"></rect><rect id="task4" rx="3" ry="3" x="567" y="122" width="500" height="20" transform-origin="817px 132px" class="task task0"></rect><text id="task1-text" font-size="11" x="325" y="63.5" class="taskText taskText0  width-21.359375">3.11 </text><text id="task11-text" font-size="11" x="274" y="303.5" class="taskText taskText2  width-31.15625">1.10.0 </text><text id="task72-text" font-size="11" x="274" y="1767.5" class="taskText taskText1  width-25.390625">8.8.0 </text><text id="task32-text" font-size="11" x="276.5" y="807.5" class="taskText taskText2  width-15.578125">3.0 </text><text id="task43-text" font-size="11" x="280.5" y="1071.5" class="taskText taskText0  width-42.703125">2023.1.0 </text><text id="task73-text" font-size="11" x="284.5" y="1791.5" class="taskText taskText1  width-25.390625">8.9.0 </text><text id="task44-text" font-size="11" x="289.5" y="1095.5" class="taskText taskText0  width-42.703125">2023.2.0 </text><text id="task74-text" font-size="11" x="291.5" y="1815.5" class="taskText taskText1  width-31.15625">8.10.0 </text><text id="task109-text" font-size="11" x="291.5" y="2655.5" class="taskText taskText2  width-31.15625">2.14.0 </text><text id="task18-text" font-size="11" x="292.5" y="471.5" class="taskText taskText3  width-25.390625">3.7.0 </text><text id="task26-text" font-size="11" x="299.5" y="663.5" class="taskText taskText1  width-31.15625">0.20.0 </text><text id="task75-text" font-size="11" x="299.5" y="1839.5" class="taskText taskText1  width-31.15625">8.11.0 </text><text id="task45-text" font-size="11" x="309.5" y="1119.5" class="taskText taskText0  width-42.703125">2023.3.0 </text><text id="task76-text" font-size="11" x="313.5" y="1863.5" class="taskText taskText1  width-31.15625">8.12.0 </text><text id="task22-text" font-size="11" x="315" y="567.5" class="taskText taskText0  width-25.390625">2.0.0 </text><text id="task33-text" font-size="11" x="315.5" y="831.5" class="taskText taskText2  width-15.578125">3.1 </text><text id="task46-text" font-size="11" x="320" y="1143.5" class="taskText taskText0  width-42.703125">2023.4.0 </text><text id="task77-text" font-size="11" x="326.5" y="1887.5" class="taskText taskText1  width-31.15625">8.13.0 </text><text id="task47-text" font-size="11" x="336" y="1167.5" class="taskText taskText0  width-42.703125">2023.5.0 </text><text id="task27-text" font-size="11" x="342.5" y="687.5" class="taskText taskText1  width-31.15625">0.21.0 </text><text id="task78-text" font-size="11" x="342.5" y="1911.5" class="taskText taskText1  width-31.15625">8.14.0 </text><text id="task110-text" font-size="11" x="347.5" y="2679.5" class="taskText taskText2  width-31.15625">2.15.0 </text><text id="task5-text" font-size="11" x="349.5" y="159.5" class="taskText taskText1  width-31.15625">1.25.0 </text><text id="task48-text" font-size="11" x="352" y="1191.5" class="taskText taskText0  width-42.703125">2023.6.0 </text><text id="task12-text" font-size="11" x="352.5" y="327.5" class="taskText taskText2  width-31.15625">1.11.0 </text><text id="task38-text" font-size="11" x="355.5" y="951.5" class="taskText taskText3  width-25.390625">1.3.0 </text><text id="task49-text" font-size="11" x="362.5" y="1215.5" class="taskText taskText0  width-42.703125">2023.7.0 </text><text id="task111-text" font-size="11" x="364.5" y="2703.5" class="taskText taskText2  width-31.15625">2.16.0 </text><text id="task50-text" font-size="11" x="378.5" y="1239.5" class="taskText taskText0  width-42.703125">2023.8.0 </text><text id="task23-text" font-size="11" x="383" y="591.5" class="taskText taskText0  width-25.390625">2.1.0 </text><text id="task79-text" font-size="11" x="383.5" y="1935.5" class="taskText taskText1  width-31.15625">8.15.0 </text><text id="task19-text" font-size="11" x="390.5" y="495.5" class="taskText taskText3  width-25.390625">3.8.0 </text><text id="task6-text" font-size="11" x="390.5" y="183.5" class="taskText taskText1  width-31.15625">1.26.0 </text><text id="task51-text" font-size="11" x="395.5" y="1263.5" class="taskText taskText0  width-42.703125">2023.9.0 </text><text id="task80-text" font-size="11" x="396.5" y="1959.5" class="taskText taskText1  width-31.15625">8.16.0 </text><text id="task2-text" font-size="11" x="481.5" y="87.5" class="taskText taskText0  width-21.359375">3.12 </text><text id="task28-text" font-size="11" x="398.5" y="711.5" class="taskText taskText1  width-31.15625">0.22.0 </text><text id="task34-text" font-size="11" x="405.5" y="855.5" class="taskText taskText2  width-15.578125">3.2 </text><text id="task52-text" font-size="11" x="405.5" y="1287.5" class="taskText taskText0  width-48.46875">2023.10.0 </text><text id="task81-text" font-size="11" x="410.5" y="1983.5" class="taskText taskText1  width-31.15625">8.17.0 </text><text id="task53-text" font-size="11" x="419.5" y="1311.5" class="taskText taskText0  width-48.46875">2023.11.0 </text><text id="task82-text" font-size="11" x="422.5" y="2007.5" class="taskText taskText1  width-31.15625">8.18.0 </text><text id="task54-text" font-size="11" x="428.5" y="1335.5" class="taskText taskText0  width-48.46875">2023.12.0 </text><text id="task83-text" font-size="11" x="435" y="2031.5" class="taskText taskText1  width-31.15625">8.19.0 </text><text id="task84-text" font-size="11" x="442.5" y="2055.5" class="taskText taskText1  width-31.15625">8.20.0 </text><text id="task55-text" font-size="11" x="446.5" y="1359.5" class="taskText taskText0  width-42.703125">2024.1.0 </text><text id="task39-text" font-size="11" x="447.5" y="975.5" class="taskText taskText3  width-25.390625">1.4.0 </text><text id="task13-text" font-size="11" x="448.5" y="351.5" class="taskText taskText2  width-31.15625">1.12.0 </text><text id="task24-text" font-size="11" x="448.5" y="615.5" class="taskText taskText0  width-25.390625">2.2.0 </text><text id="task85-text" font-size="11" x="453.5" y="2079.5" class="taskText taskText1  width-31.15625">8.21.0 </text><text id="task112-text" font-size="11" x="459.5" y="2727.5" class="taskText taskText2  width-31.15625">2.17.0 </text><text id="task56-text" font-size="11" x="462" y="1383.5" class="taskText taskText0  width-42.703125">2024.2.0 </text><text id="task86-text" font-size="11" x="463.5" y="2103.5" class="taskText taskText1  width-31.15625">8.22.0 </text><text id="task57-text" font-size="11" x="479.5" y="1407.5" class="taskText taskText0  width-42.703125">2024.3.0 </text><text id="task87-text" font-size="11" x="480.5" y="2127.5" class="taskText taskText1  width-31.15625">8.23.0 </text><text id="task14-text" font-size="11" x="481.5" y="375.5" class="taskText taskText2  width-31.15625">1.13.0 </text><text id="task35-text" font-size="11" x="483.5" y="879.5" class="taskText taskText2  width-15.578125">3.3 </text><text id="task29-text" font-size="11" x="485.5" y="735.5" class="taskText taskText1  width-31.15625">0.23.0 </text><text id="task88-text" font-size="11" x="492.5" y="2151.5" class="taskText taskText1  width-31.15625">8.24.0 </text><text id="task113-text" font-size="11" x="497.5" y="2751.5" class="taskText taskText2  width-31.15625">2.18.0 </text><text id="task58-text" font-size="11" x="500.5" y="1431.5" class="taskText taskText0  width-42.703125">2024.5.0 </text><text id="task20-text" font-size="11" x="501.5" y="519.5" class="taskText taskText3  width-25.390625">3.9.0 </text><text id="task40-text" font-size="11" x="503.5" y="999.5" class="taskText taskText3  width-25.390625">1.5.0 </text><text id="task89-text" font-size="11" x="508.5" y="2175.5" class="taskText taskText1  width-31.15625">8.25.0 </text><text id="task59-text" font-size="11" x="514.5" y="1455.5" class="taskText taskText0  width-42.703125">2024.6.0 </text><text id="task7-text" font-size="11" x="515.5" y="207.5" class="taskText taskText1  width-25.390625">2.0.0 </text><text id="task30-text" font-size="11" x="516.5" y="759.5" class="taskText taskText1  width-31.15625">0.24.0 </text><text id="task15-text" font-size="11" x="519.5" y="399.5" class="taskText taskText2  width-31.15625">1.14.0 </text><text id="task90-text" font-size="11" x="521.5" y="2199.5" class="taskText taskText1  width-31.15625">8.26.0 </text><text id="task60-text" font-size="11" x="535.5" y="1479.5" class="taskText taskText0  width-42.703125">2024.7.0 </text><text id="task8-text" font-size="11" x="544.5" y="231.5" class="taskText taskText1  width-25.390625">2.1.0 </text><text id="task91-text" font-size="11" x="550" y="2223.5" class="taskText taskText1  width-31.15625">8.27.0 </text><text id="task61-text" font-size="11" x="555.5" y="1503.5" class="taskText taskText0  width-42.703125">2024.9.0 </text><text id="task92-text" font-size="11" x="565.5" y="2247.5" class="taskText taskText1  width-31.15625">8.28.0 </text><text id="task3-text" font-size="11" x="650.5" y="111.5" class="taskText taskText0  width-21.359375">3.13 </text><text id="task36-text" font-size="11" x="568.5" y="903.5" class="taskText taskText2  width-15.578125">3.4 </text><text id="task62-text" font-size="11" x="575.5" y="1527.5" class="taskText taskText0  width-48.46875">2024.10.0 </text><text id="task93-text" font-size="11" x="575.5" y="2271.5" class="taskText taskText1  width-31.15625">8.29.0 </text><text id="task63-text" font-size="11" x="588.5" y="1551.5" class="taskText taskText0  width-48.46875">2024.11.0 </text><text id="task94-text" font-size="11" x="591.5" y="2295.5" class="taskText taskText1  width-31.15625">8.30.0 </text><text id="task9-text" font-size="11" x="595.5" y="255.5" class="taskText taskText1  width-25.390625">2.2.0 </text><text id="task41-text" font-size="11" x="596.5" y="1023.5" class="taskText taskText3  width-25.390625">1.6.0 </text><text id="task31-text" font-size="11" x="597.5" y="783.5" class="taskText taskText1  width-31.15625">0.25.0 </text><text id="task21-text" font-size="11" x="598.5" y="543.5" class="taskText taskText3  width-31.15625">3.10.0 </text><text id="task95-text" font-size="11" x="601.5" y="2319.5" class="taskText taskText1  width-31.15625">8.31.0 </text><text id="task16-text" font-size="11" x="607.5" y="423.5" class="taskText taskText2  width-31.15625">1.15.0 </text><text id="task64-text" font-size="11" x="607.5" y="1575.5" class="taskText taskText0  width-42.703125">2025.1.0 </text><text id="task114-text" font-size="11" x="610.5" y="2775.5" class="taskText taskText2  width-25.390625">3.0.0 </text><text id="task96-text" font-size="11" x="620.5" y="2343.5" class="taskText taskText1  width-31.15625">8.32.0 </text><text id="task97-text" font-size="11" x="633.5" y="2367.5" class="taskText taskText1  width-31.15625">8.33.0 </text><text id="task102-text" font-size="11" x="633.5" y="2487.5" class="taskText taskText1  width-25.390625">9.0.0 </text><text id="task98-text" font-size="11" x="636.5" y="2391.5" class="taskText taskText1  width-31.15625">8.34.0 </text><text id="task65-text" font-size="11" x="642.5" y="1599.5" class="taskText taskText0  width-42.703125">2025.3.0 </text><text id="task99-text" font-size="11" x="650.5" y="2415.5" class="taskText taskText1  width-31.15625">8.35.0 </text><text id="task103-text" font-size="11" x="650.5" y="2511.5" class="taskText taskText1  width-25.390625">9.1.0 </text><text id="task100-text" font-size="11" x="658.5" y="2439.5" class="taskText taskText1  width-31.15625">8.36.0 </text><text id="task104-text" font-size="11" x="658.5" y="2535.5" class="taskText taskText1  width-25.390625">9.2.0 </text><text id="task66-text" font-size="11" x="660.5" y="1623.5" class="taskText taskText0  width-42.703125">2025.4.0 </text><text id="task37-text" font-size="11" x="674.5" y="927.5" class="taskText taskText2  width-15.578125">3.5 </text><text id="task101-text" font-size="11" x="675" y="2463.5" class="taskText taskText1  width-31.15625">8.37.0 </text><text id="task105-text" font-size="11" x="675" y="2559.5" class="taskText taskText1  width-25.390625">9.3.0 </text><text id="task25-text" font-size="11" x="677.5" y="639.5" class="taskText taskText0  width-25.390625">2.3.0 </text><text id="task42-text" font-size="11" x="677.5" y="1047.5" class="taskText taskText3  width-25.390625">1.7.0 </text><text id="task10-text" font-size="11" x="678.5" y="279.5" class="taskText taskText1  width-25.390625">2.3.0 </text><text id="task67-text" font-size="11" x="679.5" y="1647.5" class="taskText taskText0  width-42.703125">2025.6.0 </text><text id="task17-text" font-size="11" x="685.5" y="447.5" class="taskText taskText2  width-31.15625">1.16.0 </text><text id="task106-text" font-size="11" x="689.5" y="2583.5" class="taskText taskText1  width-25.390625">9.4.0 </text><text id="task68-text" font-size="11" x="690.5" y="1671.5" class="taskText taskText0  width-42.703125">2025.7.0 </text><text id="task115-text" font-size="11" x="695.5" y="2799.5" class="taskText taskText2  width-25.390625">3.1.0 </text><text id="task69-text" font-size="11" x="709.5" y="1695.5" class="taskText taskText0  width-42.703125">2025.8.0 </text><text id="task107-text" font-size="11" x="716.5" y="2607.5" class="taskText taskText1  width-25.390625">9.5.0 </text><text id="task70-text" font-size="11" x="718.5" y="1719.5" class="taskText taskText0  width-42.703125">2025.9.0 </text><text id="task108-text" font-size="11" x="730.5" y="2631.5" class="taskText taskText1  width-25.390625">9.6.0 </text><text id="task71-text" font-size="11" x="733.5" y="1743.5" class="taskText taskText0  width-48.46875">2025.10.0 </text><text id="task4-text" font-size="11" x="817" y="135.5" class="taskText taskText0  width-21.359375">3.14 </text></g><g><text dy="0em" x="10" y="98" font-size="11" class="sectionTitle sectionTitle0"><tspan alignment-baseline="central" x="10">python</tspan></text><text dy="0em" x="10" y="218" font-size="11" class="sectionTitle sectionTitle1"><tspan alignment-baseline="central" x="10">numpy</tspan></text><text dy="0em" x="10" y="374" font-size="11" class="sectionTitle sectionTitle2"><tspan alignment-baseline="central" x="10">scipy</tspan></text><text dy="0em" x="10" y="506" font-size="11" class="sectionTitle sectionTitle3"><tspan alignment-baseline="central" x="10">matplotlib</tspan></text><text dy="0em" x="10" y="602" font-size="11" class="sectionTitle sectionTitle0"><tspan alignment-baseline="central" x="10">pandas</tspan></text><text dy="0em" x="10" y="722" font-size="11" class="sectionTitle sectionTitle1"><tspan alignment-baseline="central" x="10">scikit-image</tspan></text><text dy="0em" x="10" y="866" font-size="11" class="sectionTitle sectionTitle2"><tspan alignment-baseline="central" x="10">networkx</tspan></text><text dy="0em" x="10" y="998" font-size="11" class="sectionTitle sectionTitle3"><tspan alignment-baseline="central" x="10">scikit-learn</tspan></text><text dy="0em" x="10" y="1406" font-size="11" class="sectionTitle sectionTitle0"><tspan alignment-baseline="central" x="10">xarray</tspan></text><text dy="0em" x="10" y="2198" font-size="11" class="sectionTitle sectionTitle1"><tspan alignment-baseline="central" x="10">ipython</tspan></text><text dy="0em" x="10" y="2726" font-size="11" class="sectionTitle sectionTitle2"><tspan alignment-baseline="central" x="10">zarr</tspan></text></g><g class="today"><line x1="577" x2="577" y1="25" y2="2835" class="today"></line></g><text x="571" y="25" class="titleText">Support Window</text></g></svg>