<?xml version="1.0" encoding="UTF-8" standalone="no"?>
<!DOCTYPE svg PUBLIC "-//W3C//DTD SVG 1.1//EN"
 "http://www.w3.org/Graphics/SVG/1.1/DTD/svg11.dtd">
<!-- Generated by graphviz version 2.43.0 (0)
 -->
<!-- Title: g Pages: 1 -->
<svg width="492pt" height="1321pt"
 viewBox="0.00 0.00 492.00 1321.00" xmlns="http://www.w3.org/2000/svg" xmlns:xlink="http://www.w3.org/1999/xlink">
<g id="graph0" class="graph" transform="scale(1 1) rotate(0) translate(4 1317)">
<title>g</title>
<!-- author_discussion -->
<g id="node1" class="node">
<title>author_discussion</title>
<polygon fill="none" stroke="black" points="207,-1313 19,-1313 19,-1277 207,-1277 207,-1313"/>
<text text-anchor="middle" x="113" y="-1291.3" font-family="Times,serif" font-size="14.00">Author opens discussion / issue</text>
</g>
<!-- author_draft -->
<g id="node2" class="node">
<title>author_draft</title>
<polygon fill="none" stroke="black" points="176,-1240 50,-1240 50,-1204 176,-1204 176,-1240"/>
<text text-anchor="middle" x="113" y="-1218.3" font-family="Times,serif" font-size="14.00">Author drafts PHEP</text>
</g>
<!-- author_discussion&#45;&gt;author_draft -->
<g id="edge1" class="edge">
<title>author_discussion&#45;&gt;author_draft</title>
<path fill="none" stroke="black" d="M113,-1276.81C113,-1268.79 113,-1259.05 113,-1250.07"/>
<polygon fill="black" stroke="black" points="116.5,-1250.03 113,-1240.03 109.5,-1250.03 116.5,-1250.03"/>
</g>
<!-- author_pr -->
<g id="node3" class="node">
<title>author_pr</title>
<polygon fill="none" stroke="black" points="183,-1167 43,-1167 43,-1131 183,-1131 183,-1167"/>
<text text-anchor="middle" x="113" y="-1145.3" font-family="Times,serif" font-size="14.00">Author opens draft PR</text>
</g>
<!-- author_draft&#45;&gt;author_pr -->
<g id="edge2" class="edge">
<title>author_draft&#45;&gt;author_pr</title>
<path fill="none" stroke="black" d="M113,-1203.81C113,-1195.79 113,-1186.05 113,-1177.07"/>
<polygon fill="black" stroke="black" points="116.5,-1177.03 113,-1167.03 109.5,-1177.03 116.5,-1177.03"/>
</g>
<!-- editor_review -->
<g id="node4" class="node">
<title>editor_review</title>
<polygon fill="none" stroke="black" points="113,-1094 13,-1041 113,-988 213,-1041 113,-1094"/>
<text text-anchor="middle" x="113" y="-1052.3" font-family="Times,serif" font-size="14.00">Editor reviews.</text>
<text text-anchor="middle" x="113" y="-1037.3" font-family="Times,serif" font-size="14.00">Format</text>
<text text-anchor="middle" x="113" y="-1022.3" font-family="Times,serif" font-size="14.00">compliant?</text>
</g>
<!-- author_pr&#45;&gt;editor_review -->
<g id="edge3" class="edge">
<title>author_pr&#45;&gt;editor_review</title>
<path fill="none" stroke="black" d="M113,-1130.97C113,-1123.5 113,-1114.22 113,-1104.51"/>
<polygon fill="black" stroke="black" points="116.5,-1104.28 113,-1094.28 109.5,-1104.28 116.5,-1104.28"/>
</g>
<!-- editor_assigns -->
<g id="node5" class="node">
<title>editor_assigns</title>
<polygon fill="none" stroke="black" points="182.5,-936 43.5,-936 43.5,-900 182.5,-900 182.5,-936"/>
<text text-anchor="middle" x="113" y="-914.3" font-family="Times,serif" font-size="14.00">Editor assigns number</text>
</g>
<!-- editor_review&#45;&gt;editor_assigns -->
<g id="edge4" class="edge">
<title>editor_review&#45;&gt;editor_assigns</title>
<path fill="none" stroke="black" d="M113,-987.98C113,-973.62 113,-958.6 113,-946.26"/>
<polygon fill="black" stroke="black" points="116.5,-946.18 113,-936.18 109.5,-946.18 116.5,-946.18"/>
<text text-anchor="middle" x="123.5" y="-958.8" font-family="Times,serif" font-size="14.00">Yes</text>
</g>
<!-- return_for_revision -->
<g id="node16" class="node">
<title>return_for_revision</title>
<polygon fill="none" stroke="black" points="319,-937 201,-937 201,-899 319,-899 319,-937"/>
<text text-anchor="middle" x="260" y="-921.8" font-family="Times,serif" font-size="14.00">Editor returns to</text>
<text text-anchor="middle" x="260" y="-906.8" font-family="Times,serif" font-size="14.00">author for revision</text>
</g>
<!-- editor_review&#45;&gt;return_for_revision -->
<g id="edge16" class="edge">
<title>editor_review&#45;&gt;return_for_revision</title>
<path fill="none" stroke="black" d="M145.12,-1004.45C160.58,-988.38 179.87,-969.73 199,-955 204.76,-950.56 211.11,-946.26 217.48,-942.25"/>
<polygon fill="black" stroke="black" points="219.39,-945.19 226.11,-937 215.75,-939.21 219.39,-945.19"/>
<text text-anchor="middle" x="207.5" y="-958.8" font-family="Times,serif" font-size="14.00">No</text>
</g>
<!-- author_updates_number -->
<g id="node6" class="node">
<title>author_updates_number</title>
<polygon fill="none" stroke="black" points="224,-862 2,-862 2,-809 224,-809 224,-862"/>
<text text-anchor="middle" x="113" y="-846.8" font-family="Times,serif" font-size="14.00">Author updates</text>
<text text-anchor="middle" x="113" y="-831.8" font-family="Times,serif" font-size="14.00">PR link, number, date created, posted</text>
<text text-anchor="middle" x="113" y="-816.8" font-family="Times,serif" font-size="14.00">Marks PR ready for review</text>
</g>
<!-- editor_assigns&#45;&gt;author_updates_number -->
<g id="edge5" class="edge">
<title>editor_assigns&#45;&gt;author_updates_number</title>
<path fill="none" stroke="black" d="M113,-899.93C113,-891.86 113,-881.91 113,-872.3"/>
<polygon fill="black" stroke="black" points="116.5,-872.12 113,-862.12 109.5,-872.12 116.5,-872.12"/>
</g>
<!-- discussion -->
<g id="node7" class="node">
<title>discussion</title>
<polygon fill="none" stroke="black" points="191.5,-772 34.5,-772 34.5,-734 191.5,-734 191.5,-772"/>
<text text-anchor="middle" x="113" y="-756.8" font-family="Times,serif" font-size="14.00">Discussion, revision,</text>
<text text-anchor="middle" x="113" y="-741.8" font-family="Times,serif" font-size="14.00">reference implementation</text>
</g>
<!-- author_updates_number&#45;&gt;discussion -->
<g id="edge6" class="edge">
<title>author_updates_number&#45;&gt;discussion</title>
<path fill="none" stroke="black" d="M113,-808.59C113,-800.31 113,-791.11 113,-782.65"/>
<polygon fill="black" stroke="black" points="116.5,-782.47 113,-772.47 109.5,-782.47 116.5,-782.47"/>
</g>
<!-- vote1_announced -->
<g id="node8" class="node">
<title>vote1_announced</title>
<polygon fill="none" stroke="black" points="178.5,-697 47.5,-697 47.5,-661 178.5,-661 178.5,-697"/>
<text text-anchor="middle" x="113" y="-675.3" font-family="Times,serif" font-size="14.00">First vote announced</text>
</g>
<!-- discussion&#45;&gt;vote1_announced -->
<g id="edge7" class="edge">
<title>discussion&#45;&gt;vote1_announced</title>
<path fill="none" stroke="black" d="M113,-733.83C113,-725.89 113,-716.41 113,-707.63"/>
<polygon fill="black" stroke="black" points="116.5,-707.42 113,-697.42 109.5,-707.42 116.5,-707.42"/>
</g>
<!-- further_discussion -->
<g id="node9" class="node">
<title>further_discussion</title>
<polygon fill="none" stroke="black" points="187.5,-624 38.5,-624 38.5,-588 187.5,-588 187.5,-624"/>
<text text-anchor="middle" x="113" y="-602.3" font-family="Times,serif" font-size="14.00">Futher discussion / edits</text>
</g>
<!-- vote1_announced&#45;&gt;further_discussion -->
<g id="edge8" class="edge">
<title>vote1_announced&#45;&gt;further_discussion</title>
<path fill="none" stroke="black" d="M113,-660.81C113,-652.79 113,-643.05 113,-634.07"/>
<polygon fill="black" stroke="black" points="116.5,-634.03 113,-624.03 109.5,-634.03 116.5,-634.03"/>
</g>
<!-- vote1 -->
<g id="node10" class="node">
<title>vote1</title>
<polygon fill="none" stroke="black" points="113,-536 72,-498 113,-460 154,-498 113,-536"/>
<text text-anchor="middle" x="113" y="-501.8" font-family="Times,serif" font-size="14.00">First</text>
<text text-anchor="middle" x="113" y="-486.8" font-family="Times,serif" font-size="14.00">vote</text>
</g>
<!-- further_discussion&#45;&gt;vote1 -->
<g id="edge9" class="edge">
<title>further_discussion&#45;&gt;vote1</title>
<path fill="none" stroke="black" d="M113,-587.97C113,-576.65 113,-561.19 113,-546.33"/>
<polygon fill="black" stroke="black" points="116.5,-546.2 113,-536.2 109.5,-546.2 116.5,-546.2"/>
</g>
<!-- author_continues -->
<g id="node17" class="node">
<title>author_continues</title>
<polygon fill="none" stroke="black" points="316,-551 248,-498 316,-445 384,-498 316,-551"/>
<text text-anchor="middle" x="316" y="-509.3" font-family="Times,serif" font-size="14.00">Author</text>
<text text-anchor="middle" x="316" y="-494.3" font-family="Times,serif" font-size="14.00">continues</text>
<text text-anchor="middle" x="316" y="-479.3" font-family="Times,serif" font-size="14.00">to edit?</text>
</g>
<!-- further_discussion&#45;&gt;author_continues -->
<!-- rejected -->
<g id="node18" class="node">
<title>rejected</title>
<polygon fill="none" stroke="black" points="484,-516 420,-516 420,-480 484,-480 484,-516"/>
<text text-anchor="middle" x="452" y="-494.3" font-family="Times,serif" font-size="14.00">Rejected</text>
</g>
<!-- further_discussion&#45;&gt;rejected -->
<!-- result1 -->
<g id="node11" class="node">
<title>result1</title>
<polygon fill="none" stroke="black" points="169.5,-408 56.5,-408 56.5,-372 169.5,-372 169.5,-408"/>
<text text-anchor="middle" x="113" y="-386.3" font-family="Times,serif" font-size="14.00">Result announced</text>
</g>
<!-- vote1&#45;&gt;result1 -->
<g id="edge11" class="edge">
<title>vote1&#45;&gt;result1</title>
<path fill="none" stroke="black" d="M113,-459.93C113,-446.26 113,-431.03 113,-418.37"/>
<polygon fill="black" stroke="black" points="116.5,-418.02 113,-408.02 109.5,-418.02 116.5,-418.02"/>
<text text-anchor="middle" x="84" y="-448.73" font-family="Times,serif" font-size="14.00">Consensus</text>
</g>
<!-- vote1&#45;&gt;author_continues -->
<g id="edge18" class="edge">
<title>vote1&#45;&gt;author_continues</title>
<path fill="none" stroke="black" d="M154.08,-498C178.02,-498 209.01,-498 237.46,-498"/>
<polygon fill="black" stroke="black" points="237.8,-501.5 247.8,-498 237.8,-494.5 237.8,-501.5"/>
<text text-anchor="middle" x="201" y="-504.8" font-family="Times,serif" font-size="14.00">No consensus</text>
</g>
<!-- vote2_announced -->
<g id="node13" class="node">
<title>vote2_announced</title>
<polygon fill="none" stroke="black" points="186,-335 40,-335 40,-299 186,-299 186,-335"/>
<text text-anchor="middle" x="113" y="-313.3" font-family="Times,serif" font-size="14.00">Second vote announced</text>
</g>
<!-- result1&#45;&gt;vote2_announced -->
<g id="edge12" class="edge">
<title>result1&#45;&gt;vote2_announced</title>
<path fill="none" stroke="black" d="M113,-371.81C113,-363.79 113,-354.05 113,-345.07"/>
<polygon fill="black" stroke="black" points="116.5,-345.03 113,-335.03 109.5,-345.03 116.5,-345.03"/>
</g>
<!-- edited -->
<g id="node12" class="node">
<title>edited</title>
<polygon fill="none" stroke="black" points="113,-262 30,-224 113,-186 196,-224 113,-262"/>
<text text-anchor="middle" x="113" y="-227.8" font-family="Times,serif" font-size="14.00">Edited since</text>
<text text-anchor="middle" x="113" y="-212.8" font-family="Times,serif" font-size="14.00">first vote?</text>
</g>
<!-- edited&#45;&gt;vote1 -->
<g id="edge10" class="edge">
<title>edited&#45;&gt;vote1</title>
<path fill="none" stroke="black" d="M147.79,-246.09C165.48,-258.94 185.26,-277.1 195,-299 204.95,-321.37 189.14,-385.72 179,-408 168.8,-430.42 152.29,-452.68 138.34,-469.33"/>
<polygon fill="black" stroke="black" points="135.59,-467.16 131.73,-477.03 140.9,-471.72 135.59,-467.16"/>
<text text-anchor="middle" x="142.79" y="-249.89" font-family="Times,serif" font-size="14.00">Y</text>
</g>
<!-- vote2 -->
<g id="node14" class="node">
<title>vote2</title>
<polygon fill="none" stroke="black" points="113,-149 57,-111 113,-73 169,-111 113,-149"/>
<text text-anchor="middle" x="113" y="-114.8" font-family="Times,serif" font-size="14.00">Second</text>
<text text-anchor="middle" x="113" y="-99.8" font-family="Times,serif" font-size="14.00">vote</text>
</g>
<!-- edited&#45;&gt;vote2 -->
<g id="edge14" class="edge">
<title>edited&#45;&gt;vote2</title>
<path fill="none" stroke="black" d="M113,-185.73C113,-177.31 113,-168.26 113,-159.48"/>
<polygon fill="black" stroke="black" points="116.5,-159.36 113,-149.36 109.5,-159.36 116.5,-159.36"/>
<text text-anchor="middle" x="108" y="-174.53" font-family="Times,serif" font-size="14.00">N</text>
</g>
<!-- vote2_announced&#45;&gt;edited -->
<g id="edge13" class="edge">
<title>vote2_announced&#45;&gt;edited</title>
<path fill="none" stroke="black" d="M113,-298.88C113,-291.25 113,-281.83 113,-272.31"/>
<polygon fill="black" stroke="black" points="116.5,-272.02 113,-262.02 109.5,-272.02 116.5,-272.02"/>
</g>
<!-- final -->
<g id="node15" class="node">
<title>final</title>
<polygon fill="none" stroke="black" points="226,-36 0,-36 0,0 226,0 226,-36"/>
<text text-anchor="middle" x="113" y="-14.3" font-family="Times,serif" font-size="14.00">Mark Final, update Resolution, merge</text>
</g>
<!-- vote2&#45;&gt;final -->
<g id="edge15" class="edge">
<title>vote2&#45;&gt;final</title>
<path fill="none" stroke="black" d="M113,-72.99C113,-63.99 113,-54.54 113,-46.1"/>
<polygon fill="black" stroke="black" points="116.5,-46.06 113,-36.06 109.5,-46.06 116.5,-46.06"/>
<text text-anchor="middle" x="84" y="-61.79" font-family="Times,serif" font-size="14.00">Consensus</text>
</g>
<!-- vote2&#45;&gt;author_continues -->
<g id="edge20" class="edge">
<title>vote2:e&#45;&gt;author_continues:s</title>
<path fill="none" stroke="black" d="M170,-111C328.53,-111 316.61,-275.68 316.02,-434.55"/>
<polygon fill="black" stroke="black" points="312.52,-434.99 316,-445 319.52,-435.01 312.52,-434.99"/>
<text text-anchor="middle" x="208" y="-114.8" font-family="Times,serif" font-size="14.00">No consensus</text>
</g>
<!-- return_for_revision&#45;&gt;editor_review -->
<g id="edge17" class="edge">
<title>return_for_revision&#45;&gt;editor_review:e</title>
<path fill="none" stroke="black" d="M260.94,-937C261.63,-968.15 258.5,-1029.75 224.02,-1039.64"/>
<polygon fill="black" stroke="black" points="223.44,-1036.19 214,-1041 224.38,-1043.13 223.44,-1036.19"/>
</g>
<!-- author_continues&#45;&gt;discussion -->
<g id="edge19" class="edge">
<title>author_continues:n&#45;&gt;discussion:e</title>
<path fill="none" stroke="black" d="M316,-551C316,-652.62 299.28,-746.56 203.18,-752.68"/>
<polygon fill="black" stroke="black" points="202.89,-749.19 193,-753 203.1,-756.19 202.89,-749.19"/>
<text text-anchor="middle" x="311" y="-554.8" font-family="Times,serif" font-size="14.00">Y</text>
</g>
<!-- author_continues&#45;&gt;rejected -->
<g id="edge21" class="edge">
<title>author_continues&#45;&gt;rejected</title>
<path fill="none" stroke="black" d="M384.27,-498C392.82,-498 401.38,-498 409.94,-498"/>
<polygon fill="black" stroke="black" points="409.98,-501.5 419.98,-498 409.98,-494.5 409.98,-501.5"/>
<text text-anchor="middle" x="389.27" y="-501.8" font-family="Times,serif" font-size="14.00">N</text>
</g>
</g>
</svg>
